<svg xmlns:svg="http://www.w3.org/2000/svg" xmlns="http://www.w3.org/2000/svg" xmlns:xlink="http://www.w3.org/1999/xlink" width="128px" height="128px" viewBox="0 0 128 128" xml:space="preserve"><g><path d="M63.88 0a8.02 8.02 0 1 1-8.02 8.02A8.02 8.02 0 0 1 63.88 0zm0 32.06a4 4 0 1 1-4 4 4 4 0 0 1 4-4zm0-14.02a6 6 0 1 1-6.02 6 6 6 0 0 1 6.02-6z" fill="#ffffff" fill-opacity="1"></path><path d="M63.88 0a8.02 8.02 0 1 1-8.02 8.02A8.02 8.02 0 0 1 63.88 0zm0 32.06a4 4 0 1 1-4 4 4 4 0 0 1 4-4zm0-14.02a6 6 0 1 1-6.02 6 6 6 0 0 1 6.02-6z" fill="#ffffff" fill-opacity="0.03" transform="rotate(30 64 64)"></path><path d="M63.88 0a8.02 8.02 0 1 1-8.02 8.02A8.02 8.02 0 0 1 63.88 0zm0 32.06a4 4 0 1 1-4 4 4 4 0 0 1 4-4zm0-14.02a6 6 0 1 1-6.02 6 6 6 0 0 1 6.02-6z" fill="#ffffff" fill-opacity="0.09" transform="rotate(60 64 64)"></path><path d="M63.88 0a8.02 8.02 0 1 1-8.02 8.02A8.02 8.02 0 0 1 63.88 0zm0 32.06a4 4 0 1 1-4 4 4 4 0 0 1 4-4zm0-14.02a6 6 0 1 1-6.02 6 6 6 0 0 1 6.02-6z" fill="#ffffff" fill-opacity="0.17" transform="rotate(90 64 64)"></path><path d="M63.88 0a8.02 8.02 0 1 1-8.02 8.02A8.02 8.02 0 0 1 63.88 0zm0 32.06a4 4 0 1 1-4 4 4 4 0 0 1 4-4zm0-14.02a6 6 0 1 1-6.02 6 6 6 0 0 1 6.02-6z" fill="#ffffff" fill-opacity="0.25" transform="rotate(120 64 64)"></path><path d="M63.88 0a8.02 8.02 0 1 1-8.02 8.02A8.02 8.02 0 0 1 63.88 0zm0 32.06a4 4 0 1 1-4 4 4 4 0 0 1 4-4zm0-14.02a6 6 0 1 1-6.02 6 6 6 0 0 1 6.02-6z" fill="#ffffff" fill-opacity="0.35" transform="rotate(150 64 64)"></path><path d="M63.88 0a8.02 8.02 0 1 1-8.02 8.02A8.02 8.02 0 0 1 63.88 0zm0 32.06a4 4 0 1 1-4 4 4 4 0 0 1 4-4zm0-14.02a6 6 0 1 1-6.02 6 6 6 0 0 1 6.02-6z" fill="#ffffff" fill-opacity="0.44" transform="rotate(180 64 64)"></path><path d="M63.88 0a8.02 8.02 0 1 1-8.02 8.02A8.02 8.02 0 0 1 63.88 0zm0 32.06a4 4 0 1 1-4 4 4 4 0 0 1 4-4zm0-14.02a6 6 0 1 1-6.02 6 6 6 0 0 1 6.02-6z" fill="#ffffff" fill-opacity="0.55" transform="rotate(210 64 64)"></path><path d="M63.88 0a8.02 8.02 0 1 1-8.02 8.02A8.02 8.02 0 0 1 63.88 0zm0 32.06a4 4 0 1 1-4 4 4 4 0 0 1 4-4zm0-14.02a6 6 0 1 1-6.02 6 6 6 0 0 1 6.02-6z" fill="#ffffff" fill-opacity="0.65" transform="rotate(240 64 64)"></path><path d="M63.88 0a8.02 8.02 0 1 1-8.02 8.02A8.02 8.02 0 0 1 63.88 0zm0 32.06a4 4 0 1 1-4 4 4 4 0 0 1 4-4zm0-14.02a6 6 0 1 1-6.02 6 6 6 0 0 1 6.02-6z" fill="#ffffff" fill-opacity="0.75" transform="rotate(270 64 64)"></path><path d="M63.88 0a8.02 8.02 0 1 1-8.02 8.02A8.02 8.02 0 0 1 63.88 0zm0 32.06a4 4 0 1 1-4 4 4 4 0 0 1 4-4zm0-14.02a6 6 0 1 1-6.02 6 6 6 0 0 1 6.02-6z" fill="#ffffff" fill-opacity="0.84" transform="rotate(300 64 64)"></path><path d="M63.88 0a8.02 8.02 0 1 1-8.02 8.02A8.02 8.02 0 0 1 63.88 0zm0 32.06a4 4 0 1 1-4 4 4 4 0 0 1 4-4zm0-14.02a6 6 0 1 1-6.02 6 6 6 0 0 1 6.02-6z" fill="#ffffff" fill-opacity="0.92" transform="rotate(330 64 64)"></path></g></svg>