<svg xmlns="http://www.w3.org/2000/svg" id="Capa_1" data-name="Capa 1" viewBox="0 0 513 456"><defs><style>.cls-1{fill:#fff;stroke:#000;stroke-miterlimit:10;}</style></defs><title>ad-white</title><path class="cls-1" d="M504.5,78.5H464V36a7.5,7.5,0,0,0-7.5-7.5H7.5A7.5,7.5,0,0,0,0,36V358.67a7.5,7.5,0,0,0,15,0V93.5H449v73.08a7.5,7.5,0,1,0,15,0V143.5h33v325H447.5a7.5,7.5,0,0,0,0,15h57A7.5,7.5,0,0,0,512,476V86A7.5,7.5,0,0,0,504.5,78.5ZM112,78.5H15v-35h97Zm337,0H127v-35H449Zm48,50H464v-35h33Z" transform="translate(0.5 -28)"></path><path class="cls-1" d="M456.5,191.5A7.5,7.5,0,0,0,449,199V418.5H15V391a7.5,7.5,0,0,0-15,0v35a7.5,7.5,0,0,0,7.5,7.5H48V476a7.5,7.5,0,0,0,7.5,7.5H416a7.5,7.5,0,0,0,0-15H63v-35H456.5A7.5,7.5,0,0,0,464,426V199A7.5,7.5,0,0,0,456.5,191.5Z" transform="translate(0.5 -28)"></path><path class="cls-1" d="M307,325.17H147a27.53,27.53,0,0,0-27.5,27.5v20a27.54,27.54,0,0,0,27.5,27.5H307a27.54,27.54,0,0,0,27.5-27.5v-20A27.53,27.53,0,0,0,307,325.17Zm12.5,47.5a12.52,12.52,0,0,1-12.5,12.5H147a12.52,12.52,0,0,1-12.5-12.5v-20a12.51,12.51,0,0,1,12.5-12.5H307a12.51,12.51,0,0,1,12.5,12.5Z" transform="translate(0.5 -28)"></path><circle class="cls-1" cx="37" cy="33" r="7.5"></circle><circle class="cls-1" cx="93" cy="33" r="7.5"></circle><circle class="cls-1" cx="65" cy="33" r="7.5"></circle><path class="cls-1" d="M179.39,278.54l-47.15-132a7.49,7.49,0,0,0-7-5h0a7.48,7.48,0,0,0-7.05,4.94c-.12.33-11.92,32.94-23.57,65.35-24,66.75-24,67.31-24,69.14A7.5,7.5,0,0,0,78,288.57H78a7.52,7.52,0,0,0,7.34-5.95c.8-2.72,6.42-18.6,14-39.76h51.35l14.54,40.73a7.5,7.5,0,0,0,14.13-5Zm-74.64-50.67c6.45-18,13.7-38.11,20.39-56.63l20.22,56.63Z" transform="translate(0.5 -28)"></path><path class="cls-1" d="M198,141.57h-2.57a7.5,7.5,0,0,0-7.5,7.5v132a7.5,7.5,0,0,0,7.5,7.5H198a73.5,73.5,0,1,0,0-147ZM203,273.36V156.77a58.5,58.5,0,0,1,0,116.59Z" transform="translate(0.5 -28)"></path><path class="cls-1" d="M336.85,205H321A22.09,22.09,0,0,1,299,182.92v-4.28A22.09,22.09,0,0,1,321,156.57h9.43a22.09,22.09,0,0,1,22.07,22.07,7.5,7.5,0,1,0,15,0,37.11,37.11,0,0,0-37.07-37.07H321A37.11,37.11,0,0,0,284,178.64v4.28A37.11,37.11,0,0,0,321,220h15.81a15.71,15.71,0,0,1,15.69,15.69v15.81a22.1,22.1,0,0,1-22.07,22.08H321A22.1,22.1,0,0,1,299,251.49v-4.71a7.5,7.5,0,1,0-15,0v4.71A37.11,37.11,0,0,0,321,288.57h9.43a37.11,37.11,0,0,0,37.07-37.08V235.68A30.73,30.73,0,0,0,336.85,205Z" transform="translate(0.5 -28)"></path></svg>