<svg xmlns="http://www.w3.org/2000/svg" id="Layer_1" data-name="Layer 1" viewBox="0 0 512 405.84"><defs><style>.cls-1{fill:#fff;}</style></defs><title>background-white</title><path class="cls-1" d="M468.32,53.08H43.68A43.73,43.73,0,0,0,0,96.76V379.85H0v35.38a43.73,43.73,0,0,0,43.68,43.68H468.32A43.74,43.74,0,0,0,512,415.24V96.76A43.74,43.74,0,0,0,468.32,53.08ZM43.68,442.33a27.12,27.12,0,0,1-27.09-27.09V383.29L56,343.91H238.31a8.21,8.21,0,0,0,4.23-1.17l99.6,99.59ZM230,299.68v27.65H60.82V299.68ZM116.78,283.09l13.9-13.9a27.11,27.11,0,0,1,38.32,0l13.9,13.9ZM495.41,415.24a27.12,27.12,0,0,1-27.09,27.09H365.6L256,332.71,387.24,201.46a27.08,27.08,0,0,1,38.31,0l69.86,69.86V415.24Zm0-167.38-58.13-58.13a43.66,43.66,0,0,0-61.77,0L246.6,318.63V291.39a8.3,8.3,0,0,0-8.29-8.3h-32l-25.62-25.63a43.7,43.7,0,0,0-61.78,0L93.32,283.09H52.53a8.3,8.3,0,0,0-8.3,8.3v40.79L16.59,359.83V96.76A27.12,27.12,0,0,1,43.68,69.67H468.32a27.12,27.12,0,0,1,27.09,27.09Z" transform="translate(0 -53.08)"></path><path class="cls-1" d="M317.93,168.09H298.88a43.55,43.55,0,0,0-6.7-16.16l13.47-13.47a8.29,8.29,0,0,0-11.73-11.73L280.45,140.2a43.55,43.55,0,0,0-16.16-6.7v-19a8.29,8.29,0,0,0-16.58,0v19a43.55,43.55,0,0,0-16.16,6.7l-13.47-13.47a8.29,8.29,0,1,0-11.73,11.73l13.47,13.47a43.48,43.48,0,0,0-6.7,16.16H194.07a8.3,8.3,0,0,0,0,16.59h19.05a43.5,43.5,0,0,0,6.7,16.15l-13.47,13.48A8.29,8.29,0,0,0,218.08,226l13.47-13.47a43.55,43.55,0,0,0,16.16,6.7v19.05a8.29,8.29,0,1,0,16.58,0V219.26a43.55,43.55,0,0,0,16.16-6.7L293.92,226a8.29,8.29,0,0,0,11.73-11.73l-13.47-13.48a43.5,43.5,0,0,0,6.7-16.15h19a8.3,8.3,0,1,0,0-16.59ZM256,203.47a27.09,27.09,0,1,1,27.09-27.09A27.12,27.12,0,0,1,256,203.47Z" transform="translate(0 -53.08)"></path><path d="M238.31,362.71H52.53a8.3,8.3,0,1,0,0,16.59H238.31a8.3,8.3,0,0,0,0-16.59Z" transform="translate(0 -53.08)"></path><path d="M167.53,398.1h-115a8.3,8.3,0,1,0,0,16.59h115a8.3,8.3,0,1,0,0-16.59Z" transform="translate(0 -53.08)"></path></svg>