<svg xmlns="http://www.w3.org/2000/svg" id="Warstwa_1" data-name="Warstwa 1" viewBox="0 0 481 483.56"><defs><style>.cls-1{fill:#fff;stroke:#000;stroke-miterlimit:10;}</style></defs><title>consulting-white</title><g id="Consult-Talk"><rect class="cls-1" x="112.5" y="187.06" width="16" height="16"></rect><rect class="cls-1" x="192.5" y="187.06" width="16" height="16"></rect><path class="cls-1" d="M489.14,288.08l-31.26-4.46a111.35,111.35,0,0,0-5.26-12.8l18.92-25.22a8,8,0,0,0-.75-10.46L436.85,201.2a7.91,7.91,0,0,0-4.85-2.26v-77A64,64,0,0,0,456,72a63.33,63.33,0,0,0-36.58-57.79A8,8,0,0,0,408.77,18a7.87,7.87,0,0,0-.77,3.41v44.8l-16,5.34-16-5.34V21.44a8,8,0,0,0-8-8,8.12,8.12,0,0,0-3.39.77A63.32,63.32,0,0,0,328,72a64,64,0,0,0,24,49.93V176H328a8,8,0,0,0-7.92,6.86L314.9,219.1l15.84,2.26,4.2-29.36h34.12l4.2,29.36a8,8,0,0,0,5.68,6.54,96.16,96.16,0,0,1,19.2,7.9,8,8,0,0,0,8.64-.62l23.69-17.76,24.13,24.13-17.8,23.69a8,8,0,0,0-.62,8.65,95.1,95.1,0,0,1,7.9,19.2,8,8,0,0,0,6.54,5.68L480,303v34.13l-29.36,4.19a8,8,0,0,0-6.54,5.68,95.1,95.1,0,0,1-7.9,19.2,8,8,0,0,0,.62,8.65l17.76,23.69-24.13,24.12L406.76,404.8a8,8,0,0,0-8.65-.62,95.1,95.1,0,0,1-19.2,7.9,8,8,0,0,0-5.68,6.54L369.06,448H336V414.17a89.06,89.06,0,0,0-3.6-25,72.89,72.89,0,1,0-51.15-56.5l-.57-.24L216,306.58V294.29A88.64,88.64,0,0,0,243.83,272H264a24,24,0,0,0,24-24V230.53A24,24,0,0,0,304,208V184a24,24,0,0,0-16-22.53V152a112,112,0,0,0-224,0v9.47A24,24,0,0,0,48,184v24a24,24,0,0,0,24,24H88c.51,0,1-.08,1.51-.11A88.21,88.21,0,0,0,136,294.29v12.29L71.32,332.46A87.58,87.58,0,0,0,16,414.17V488a8,8,0,0,0,8,8H328a8,8,0,0,0,8-8V464h40a8,8,0,0,0,7.92-6.86l4.46-31.26a111.35,111.35,0,0,0,12.8-5.26l25.22,18.92a8,8,0,0,0,10.46-.75l33.94-33.94a8,8,0,0,0,.74-10.46l-18.91-25.21a112.09,112.09,0,0,0,5.26-12.8l31.25-4.47A8,8,0,0,0,496,344V296A8,8,0,0,0,489.14,288.08Zm-88-68.7c-.38-.19-.8-.31-1.18-.48V120H384v63.44l-.08-.58A8,8,0,0,0,376,176h-8V117.92a8,8,0,0,0-3.43-6.57A48,48,0,0,1,360,36.18V72a8,8,0,0,0,5.47,7.59l24,8a8,8,0,0,0,5.06,0l24-8A8,8,0,0,0,424,72V36.18a48,48,0,0,1-4.57,75.2,8,8,0,0,0-3.43,6.54v90.34ZM296,320a56.39,56.39,0,1,1,26.66,47.53,87.33,87.33,0,0,0-20.88-23A54.6,54.6,0,0,1,296,320Zm-32-64h-9.71a87.22,87.22,0,0,0,8.2-24.11c.5,0,1,.11,1.51.11h8v16A8,8,0,0,1,264,256Zm-16-88a24.11,24.11,0,0,1-19.2-9.6l-14.4-19.2a8,8,0,0,0-5.39-3.14,8.13,8.13,0,0,0-6,1.69L176.15,159.2a40.13,40.13,0,0,1-25,8.8H104v-8a72,72,0,0,1,144,0Zm40,40a8,8,0,0,1-8,8H264V176h16a8,8,0,0,1,8,8ZM176,56a96.1,96.1,0,0,1,96,96v8h-8a88,88,0,0,0-176,0H80v-8A96.1,96.1,0,0,1,176,56ZM72,216a8,8,0,0,1-8-8V184a8,8,0,0,1,8-8H88v40Zm32,0V184h47.2a56.23,56.23,0,0,0,35-12.27l20.4-16.33L216,168a40.19,40.19,0,0,0,32,16v32a71.58,71.58,0,0,1-12.18,40H176v16h45.15A71.93,71.93,0,0,1,104,216Zm72,88a87.75,87.75,0,0,0,24-3.41V312a24,24,0,0,1-48,0V300.59A87.75,87.75,0,0,0,176,304ZM320,480H272V392H256v88H96V392H80v88H32V414.17a71.66,71.66,0,0,1,45.26-66.86l60.51-24.2a39.74,39.74,0,0,0,76.46,0l60.51,24.2A71.66,71.66,0,0,1,320,414.17Z" transform="translate(-15.5 -12.94)"></path><rect class="cls-1" x="328.5" y="195.06" width="16" height="16"></rect><rect class="cls-1" x="328.5" y="403.06" width="16" height="16"></rect><rect class="cls-1" x="417.53" y="385.54" width="16" height="16" transform="translate(-169.14 403.22) rotate(-45)"></rect><rect class="cls-1" x="432.5" y="299.06" width="16" height="16"></rect><rect class="cls-1" x="417.54" y="238.46" width="16" height="16" transform="translate(-65.14 360.15) rotate(-45)"></rect></g></svg>