<svg xmlns="http://www.w3.org/2000/svg" id="Capa_1" data-name="Capa 1" viewBox="0 0 491 323.6"><defs><style>.cls-1{fill:#fff;stroke:#000;stroke-miterlimit:10;}</style></defs><title>customer-reviews-white</title><path class="cls-1" d="M446.52,174.43C419.27,153.51,383.18,142,344.9,142a178.39,178.39,0,0,0-65.55,12.17c-10-19.09-26.77-36-48.06-48.31C206.22,91.36,176.41,83.7,145.1,83.7c-38.28,0-74.37,11.52-101.62,32.44C15.44,137.66,0,166.52,0,197.41c0,27.81,12.72,54.28,35.94,75l.39,67.75a9.61,9.61,0,0,0,5,8.58,10.56,10.56,0,0,0,9.91.1l70.29-39.23a187.93,187.93,0,0,0,23.61,1.5h0a179,179,0,0,0,65.47-12.18c7.37,14.12,18.39,27,32.72,38,27.25,20.92,63.34,32.44,101.61,32.44a186,186,0,0,0,23.73-1.52L439,405c4,2,6.95,1.54,9.8-.27a10.19,10.19,0,0,0,4.86-8.52l.4-65.48C477.28,310,490,283.51,490,255.7,490,224.82,474.56,196,446.52,174.43ZM145.1,291.11h0a167,167,0,0,1-24.32-1.78,10,10,0,0,0-7.71,2.08L56.23,323.14,55.91,268c0-.2,0-.4,0-.6a10,10,0,0,0-3.6-7.23C31.47,242.83,20,220.56,20,197.41c0-51.67,56.12-93.71,125.1-93.71,51.1,0,97.3,23.87,116.15,59a142.91,142.91,0,0,0-18,11.73c-28,21.53-43.48,50.39-43.48,81.27a91.65,91.65,0,0,0,3.38,24.66A158.87,158.87,0,0,1,145.1,291.11Zm292.6,27.3a10,10,0,0,0-3.6,7.23c0,.18,0,.36,0,.54l-.32,53.43-57-30.05a10,10,0,0,0-7.53-1.94,165.81,165.81,0,0,1-24.32,1.79c-56.49,0-104.34-28.2-119.82-66.78-.07-.19-.15-.37-.22-.56a71.78,71.78,0,0,1-5.06-26.37c0-33.25,23.24-62.5,58.19-79.14l.07,0a10.46,10.46,0,0,0,1.12-.53c19.11-8.88,41.63-14,65.72-14,69,0,125.1,42,125.1,93.71C470,278.85,458.53,301.13,437.7,318.41Z" transform="translate(0.5 -83.2)"></path><path class="cls-1" d="M403.65,222.2H286.15a10,10,0,0,0,0,20h117.5a10,10,0,0,0,0-20Z" transform="translate(0.5 -83.2)"></path><path class="cls-1" d="M403.65,267.47H286.15a10,10,0,0,0,0,20h117.5a10,10,0,0,0,0-20Z" transform="translate(0.5 -83.2)"></path><path class="cls-1" d="M446.52,174.43C419.27,153.51,383.18,142,344.9,142a178.39,178.39,0,0,0-65.55,12.17c-10-19.09-26.77-36-48.06-48.31C206.22,91.36,176.41,83.7,145.1,83.7c-38.28,0-74.37,11.52-101.62,32.44C15.44,137.66,0,166.52,0,197.41c0,27.81,12.72,54.28,35.94,75l.39,67.75a9.61,9.61,0,0,0,5,8.58,10.56,10.56,0,0,0,9.91.1l70.29-39.23a187.93,187.93,0,0,0,23.61,1.5h0a179,179,0,0,0,65.47-12.18c7.37,14.12,18.39,27,32.72,38,27.25,20.92,63.34,32.44,101.61,32.44a186,186,0,0,0,23.73-1.52L439,405c4,2,6.95,1.54,9.8-.27a10.19,10.19,0,0,0,4.86-8.52l.4-65.48C477.28,310,490,283.51,490,255.7,490,224.82,474.56,196,446.52,174.43ZM145.1,291.11h0a167,167,0,0,1-24.32-1.78,10,10,0,0,0-7.71,2.08L56.23,323.14,55.91,268c0-.2,0-.4,0-.6a10,10,0,0,0-3.6-7.23C31.47,242.83,20,220.56,20,197.41c0-51.67,56.12-93.71,125.1-93.71,51.1,0,97.3,23.87,116.15,59a142.91,142.91,0,0,0-18,11.73c-28,21.53-43.48,50.39-43.48,81.27a91.65,91.65,0,0,0,3.38,24.66A158.87,158.87,0,0,1,145.1,291.11Zm292.6,27.3a10,10,0,0,0-3.6,7.23c0,.18,0,.36,0,.54l-.32,53.43-57-30.05a10,10,0,0,0-7.53-1.94,165.81,165.81,0,0,1-24.32,1.79c-56.49,0-104.34-28.2-119.82-66.78-.07-.19-.15-.37-.22-.56a71.78,71.78,0,0,1-5.06-26.37c0-52.68,57-93.71,125.1-93.71S470,204,470,255.7C470,278.85,458.53,301.13,437.7,318.41Z" transform="translate(0.5 -83.2)"></path><path class="cls-1" d="M403.65,222.2H286.15a10,10,0,0,0,0,20h117.5a10,10,0,0,0,0-20Z" transform="translate(0.5 -83.2)"></path><path class="cls-1" d="M403.65,267.47H286.15a10,10,0,0,0,0,20h117.5a10,10,0,0,0,0-20Z" transform="translate(0.5 -83.2)"></path></svg>