<svg xmlns="http://www.w3.org/2000/svg" id="Capa_1" data-name="Capa 1" viewBox="0 0 457.61 324.86"><defs><style>.cls-1{fill:#fff;}</style></defs><title>docker-white</title><path class="cls-1" d="M512,251.64c-21.86,26.63-64.69,24.55-64.69,24.55C420.85,390,261.33,447.91,150.57,419.45S55.06,258.92,55.06,258.92H379.19c26.75,0,28.79-8.13,28.79-8.13-23.71-56.23,12.87-86.37,12.87-86.37,28.46,5.08,35.56,53.85,35.56,53.85A94.89,94.89,0,0,1,510,223.86,254.5,254.5,0,0,1,512,251.64Z" transform="translate(-54.35 -101.76)"></path><rect class="cls-1" x="35.25" y="105.67" width="45.39" height="41.32"></rect><rect class="cls-1" x="92.29" y="105.67" width="45.39" height="41.32"></rect><rect class="cls-1" x="263.4" y="105.67" width="45.39" height="41.32"></rect><rect class="cls-1" x="206.37" y="105.67" width="45.39" height="41.32"></rect><rect class="cls-1" x="206.37" width="45.39" height="41.32"></rect><rect class="cls-1" x="149.32" y="105.67" width="45.39" height="41.32"></rect><rect class="cls-1" x="92.29" y="52.83" width="45.39" height="41.32"></rect><rect class="cls-1" x="206.37" y="52.83" width="45.39" height="41.32"></rect><rect class="cls-1" x="149.32" y="52.83" width="45.39" height="41.32"></rect></svg>