<svg xmlns="http://www.w3.org/2000/svg" id="Capa_1" data-name="Capa 1" viewBox="0 0 329.18 491"><defs><style>.cls-1{fill:none;stroke:#000;stroke-miterlimit:10;}</style></defs><title>keyhole-white</title><path class="cls-1" d="M399,180.4H366.12V121.12a121.12,121.12,0,0,0-242.24,0V180.4H91a10.07,10.07,0,0,0-10.08,10.07V479.92A10.08,10.08,0,0,0,91,490H399a10.08,10.08,0,0,0,10.08-10.08V190.47A10.07,10.07,0,0,0,399,180.4ZM144,121.12a101,101,0,0,1,201.94,0V180.4H312.86V123.27a67.86,67.86,0,0,0-135.72,0V180.4H144V121.12ZM292.71,180.4H197.29V123.27a47.71,47.71,0,0,1,95.42,0Zm96.22,20.15V416.38H101.07V200.55ZM101.07,469.85V436.53H388.93v33.32Z" transform="translate(-80.41 0.5)"></path><path class="cls-1" d="M245,385.82a46.76,46.76,0,0,0,31.63-81.2V253A20.61,20.61,0,0,0,256,232.39H234.32A20.62,20.62,0,0,0,213.73,253l0,51.33A46.76,46.76,0,0,0,245,385.82Zm-15.38-68.48a10.07,10.07,0,0,0,4.24-8.21l0-56.15a.43.43,0,0,1,.43-.43H256a.44.44,0,0,1,.44.43v56.39a10.05,10.05,0,0,0,4.15,8.15,26.61,26.61,0,1,1-31-.18Z" transform="translate(-80.41 0.5)"></path></svg>