<svg xmlns="http://www.w3.org/2000/svg" id="Capa_1" data-name="Capa 1" viewBox="0 0 513 432.84"><defs><style>.cls-1{fill:#fff;stroke:#000;stroke-miterlimit:10;}</style></defs><title>modular-monitor-white</title><path class="cls-1" d="M480.45,40.08H31.55A31.58,31.58,0,0,0,0,71.63V376.24a31.58,31.58,0,0,0,31.55,31.55H183.38l-6.15,49.13H151.79a7.5,7.5,0,0,0,0,15H360.21a7.5,7.5,0,0,0,0-15H334.77l-6.14-49.13H480.45A31.58,31.58,0,0,0,512,376.24V71.63A31.58,31.58,0,0,0,480.45,40.08ZM192.35,456.92l6.14-49.13H226.1l2.7,10.83a28,28,0,0,0,54.4,0l2.71-10.83h27.6l6.14,49.13Zm49.21-49.13h28.88l-1.8,7.19a13,13,0,0,1-25.29,0ZM497,376.24h0a16.56,16.56,0,0,1-16.55,16.55H31.55A16.56,16.56,0,0,1,15,376.24V71.63A16.56,16.56,0,0,1,31.55,55.08h448.9A16.56,16.56,0,0,1,497,71.63V376.24Z" transform="translate(0.5 -39.58)"></path><path class="cls-1" d="M424.34,72.15H39.56a7.5,7.5,0,0,0-7.5,7.5V368.23a7.5,7.5,0,0,0,7.5,7.5h16a7.5,7.5,0,1,0,0-15H47.06V87.15H424.34a7.5,7.5,0,0,0,0-15Z" transform="translate(0.5 -39.58)"></path><path class="cls-1" d="M472.44,72.15h-16a7.5,7.5,0,0,0,0,15h8.54V360.73H87.66a7.5,7.5,0,1,0,0,15H472.43a7.5,7.5,0,0,0,7.5-7.5V79.65A7.48,7.48,0,0,0,472.44,72.15Z" transform="translate(0.5 -39.58)"></path><path class="cls-1" d="M237.77,148.06h41.37c3.4,0,6.15-3,6.15-6.74s-2.75-6.74-6.15-6.74H237.77c-3.39,0-6.14,3-6.14,6.74S234.38,148.06,237.77,148.06Z" transform="translate(0.5 -39.58)"></path><path class="cls-1" d="M285.29,168.56c0-3.73-2.75-6.74-6.15-6.74H237.77c-3.39,0-6.14,3-6.14,6.74s2.75,6.74,6.14,6.74h41.37C282.54,175.3,285.29,172.28,285.29,168.56Z" transform="translate(0.5 -39.58)"></path><path class="cls-1" d="M132.8,216.29c-3.4,0-6.15,3-6.15,6.74v26.85H91.43c-3.4,0-6.14,3-6.14,6.74v72.63C85.29,333,88,336,91.43,336h82.74c3.39,0,6.14-3,6.14-6.74V256.62c0-3.72-2.75-6.74-6.14-6.74H138.94V229.77H252.42v20.11H217.19c-3.39,0-6.14,3-6.14,6.74v72.63c0,3.72,2.75,6.74,6.14,6.74h82.74c3.39,0,6.14-3,6.14-6.74V256.62c0-3.72-2.75-6.74-6.14-6.74H264.7V229.77H378.18v20.11H343c-3.4,0-6.15,3-6.15,6.74v72.63c0,3.72,2.75,6.74,6.15,6.74h82.73c3.4,0,6.15-3,6.15-6.74V256.62c0-3.72-2.75-6.74-6.15-6.74H390.47V223c0-3.72-2.75-6.74-6.14-6.74H264.7V198h35.23c3.39,0,6.14-3,6.14-6.74V118.62c0-3.72-2.75-6.74-6.14-6.74H217.19c-3.39,0-6.14,3-6.14,6.74v72.63c0,3.73,2.75,6.74,6.14,6.74h35.23v18.3ZM168,322.51H97.57V263.36H168Zm125.77,0H223.34V263.36h70.45Zm125.76,0H349.1V263.36h70.45ZM223.33,125.36h70.46v59.15H223.33Z" transform="translate(0.5 -39.58)"></path><path class="cls-1" d="M357.5,279.31c0,3.73,2.75,6.75,6.14,6.75H405c3.39,0,6.14-3,6.14-6.75s-2.75-6.74-6.14-6.74H363.64C360.25,272.57,357.5,275.59,357.5,279.31Z" transform="translate(0.5 -39.58)"></path><path class="cls-1" d="M405,299.81H363.64c-3.39,0-6.14,3-6.14,6.74s2.75,6.74,6.14,6.74H405c3.39,0,6.14-3,6.14-6.74S408.4,299.81,405,299.81Z" transform="translate(0.5 -39.58)"></path><path class="cls-1" d="M231.73,279.31c0,3.73,2.75,6.75,6.15,6.75h41.37c3.39,0,6.14-3,6.14-6.75s-2.75-6.74-6.14-6.74H237.88C234.48,272.57,231.73,275.59,231.73,279.31Z" transform="translate(0.5 -39.58)"></path><path class="cls-1" d="M279.25,299.81H237.88c-3.4,0-6.15,3-6.15,6.74s2.75,6.74,6.15,6.74h41.37c3.39,0,6.14-3,6.14-6.74S282.64,299.81,279.25,299.81Z" transform="translate(0.5 -39.58)"></path><path class="cls-1" d="M106,279.31c0,3.73,2.75,6.75,6.14,6.75h41.37c3.4,0,6.15-3,6.15-6.75s-2.75-6.74-6.15-6.74H112.11C108.72,272.57,106,275.59,106,279.31Z" transform="translate(0.5 -39.58)"></path><path class="cls-1" d="M153.48,299.81H112.11c-3.39,0-6.14,3-6.14,6.74s2.75,6.74,6.14,6.74h41.37c3.4,0,6.15-3,6.15-6.74S156.88,299.81,153.48,299.81Z" transform="translate(0.5 -39.58)"></path></svg>