<svg xmlns="http://www.w3.org/2000/svg" id="Capa_1" data-name="Capa 1" viewBox="0 0 512 431.84"><defs><style>.cls-1{fill:#fff;}</style></defs><title>monitor-white-2</title><path class="cls-1" d="M480.45,40.08H31.55A31.58,31.58,0,0,0,0,71.63V376.24a31.58,31.58,0,0,0,31.55,31.55H183.38l-6.15,49.13H151.79a7.5,7.5,0,0,0,0,15H360.21a7.5,7.5,0,0,0,0-15H334.77l-6.14-49.13H480.45A31.58,31.58,0,0,0,512,376.24V71.63A31.58,31.58,0,0,0,480.45,40.08ZM192.35,456.92l6.14-49.13H226.1l2.7,10.83a28,28,0,0,0,54.4,0l2.71-10.83h27.6l6.14,49.13Zm49.21-49.13h28.88l-1.8,7.19a13,13,0,0,1-25.29,0ZM497,376.24h0a16.56,16.56,0,0,1-16.55,16.55H31.55A16.56,16.56,0,0,1,15,376.24V71.63A16.56,16.56,0,0,1,31.55,55.08h448.9A16.56,16.56,0,0,1,497,71.63V376.24Z" transform="translate(0 -40.08)"></path><path class="cls-1" d="M424.34,72.15H39.56a7.5,7.5,0,0,0-7.5,7.5V368.23a7.5,7.5,0,0,0,7.5,7.5h16a7.5,7.5,0,1,0,0-15H47.06V87.15H424.34a7.5,7.5,0,0,0,0-15Z" transform="translate(0 -40.08)"></path><path class="cls-1" d="M472.44,72.15h-16a7.5,7.5,0,0,0,0,15h8.54V360.73H87.66a7.5,7.5,0,1,0,0,15H472.43a7.5,7.5,0,0,0,7.5-7.5V79.65A7.48,7.48,0,0,0,472.44,72.15Z" transform="translate(0 -40.08)"></path><path class="cls-1" d="M167.67,136H79.21a8.3,8.3,0,1,0-.57,16.59h89a8.3,8.3,0,1,0,.58-16.59A5.61,5.61,0,0,0,167.67,136Z" transform="translate(0 -40.08)"></path><path class="cls-1" d="M220.75,136H203.06a8.3,8.3,0,0,0,0,16.59h17.69a8.3,8.3,0,1,0,.58-16.59A5.61,5.61,0,0,0,220.75,136Z" transform="translate(0 -40.08)"></path><path class="cls-1" d="M273.83,136H256.14a8.3,8.3,0,0,0,0,16.59h17.69a8.3,8.3,0,1,0,.58-16.59A5.61,5.61,0,0,0,273.83,136Z" transform="translate(0 -40.08)"></path><path class="cls-1" d="M326.91,136H309.22a8.3,8.3,0,0,0,0,16.59h17.69a8.3,8.3,0,1,0,.58-16.59A5.61,5.61,0,0,0,326.91,136Z" transform="translate(0 -40.08)"></path><path class="cls-1" d="M380,136H362.3a8.3,8.3,0,0,0,0,16.59H380a8.3,8.3,0,1,0,.58-16.59A5.61,5.61,0,0,0,380,136Z" transform="translate(0 -40.08)"></path><path class="cls-1" d="M220.75,206.79H79.21a8.31,8.31,0,0,0-8.3,8.3v88.46a8.32,8.32,0,0,0,8.3,8.3H220.75a8.31,8.31,0,0,0,8.3-8.3V215.09A8.3,8.3,0,0,0,220.75,206.79Zm-8.29,88.47h-125V258.77h125Zm0-53.08h-125v-18.8h125Z" transform="translate(0 -40.08)"></path><path class="cls-1" d="M433.07,206.79H362.3a8.3,8.3,0,0,0-8.29,8.3v88.46a8.3,8.3,0,0,0,8.29,8.3h70.77a8.31,8.31,0,0,0,8.3-8.3V215.09A8.3,8.3,0,0,0,433.07,206.79Zm-8.29,88.47H370.59V258.77h54.19Zm0-53.08H370.59v-18.8h54.19Z" transform="translate(0 -40.08)"></path><path class="cls-1" d="M326.91,206.79H256.14a8.3,8.3,0,0,0-8.29,8.3v88.46a8.31,8.31,0,0,0,8.29,8.31h70.77a8.31,8.31,0,0,0,8.3-8.3V215.09A8.3,8.3,0,0,0,326.91,206.79Zm-8.29,88.47H264.43V258.77h54.19Zm0-53.08H264.43v-18.8h54.19Z" transform="translate(0 -40.08)"></path></svg>