<svg xmlns="http://www.w3.org/2000/svg" id="Layer_1" data-name="Layer 1" viewBox="0 0 512 441.23"><defs><style>.cls-1{fill:#fff;}.cls-2{fill:#231f20;}</style></defs><title>monitor-white</title><path class="cls-1" d="M477.17,35.39H34.84A34.87,34.87,0,0,0,0,70.22V371a34.88,34.88,0,0,0,34.84,34.83H176.93V460H141a8.29,8.29,0,0,0,0,16.58H371A8.29,8.29,0,0,0,371,460H335.07V405.84h142.1A34.88,34.88,0,0,0,512,371V70.22A34.87,34.87,0,0,0,477.17,35.39ZM318.48,460h-125V405.84h125V460Zm176.93-89a18.26,18.26,0,0,1-18.24,18.24H34.84A18.26,18.26,0,0,1,16.59,371V352.76H495.41V371Zm0-34.84H16.59v-266A18.27,18.27,0,0,1,34.83,52H477.17a18.27,18.27,0,0,1,18.24,18.25v266Z" transform="translate(0 -35.39)"></path><path class="cls-2" d="M468.32,70.77H43.68a8.3,8.3,0,0,0-8.29,8.3v230a8.29,8.29,0,0,0,8.29,8.29H468.32a8.29,8.29,0,0,0,8.29-8.29v-230A8.3,8.3,0,0,0,468.32,70.77Zm-8.29,230H52V158.13H460Zm0-159.24H52V87.36H460Z" transform="translate(0 -35.39)"></path><path class="cls-1" d="M167.53,106.16H79.07a8.3,8.3,0,1,0,0,16.59h88.46a8.3,8.3,0,1,0,0-16.59Z" transform="translate(0 -35.39)"></path><path class="cls-1" d="M220.61,106.16H202.92a8.3,8.3,0,0,0,0,16.59h17.69a8.3,8.3,0,1,0,0-16.59Z" transform="translate(0 -35.39)"></path><path class="cls-1" d="M273.69,106.16H256a8.3,8.3,0,0,0,0,16.59h17.69a8.3,8.3,0,1,0,0-16.59Z" transform="translate(0 -35.39)"></path><path class="cls-1" d="M326.77,106.16H309.08a8.3,8.3,0,0,0,0,16.59h17.69a8.3,8.3,0,1,0,0-16.59Z" transform="translate(0 -35.39)"></path><path class="cls-1" d="M379.85,106.16H362.16a8.3,8.3,0,0,0,0,16.59h17.69a8.3,8.3,0,1,0,0-16.59Z" transform="translate(0 -35.39)"></path><path class="cls-1" d="M432.93,106.16H415.24a8.3,8.3,0,0,0,0,16.59h17.69a8.3,8.3,0,1,0,0-16.59Z" transform="translate(0 -35.39)"></path><path class="cls-1" d="M220.61,176.93H79.07a8.31,8.31,0,0,0-8.3,8.3v88.46a8.31,8.31,0,0,0,8.3,8.3H220.61a8.31,8.31,0,0,0,8.3-8.3V185.23A8.31,8.31,0,0,0,220.61,176.93Zm-8.29,88.47h-125V228.91h125Zm0-53.08h-125v-18.8h125Z" transform="translate(0 -35.39)"></path><path class="cls-1" d="M432.93,176.93H362.16a8.3,8.3,0,0,0-8.29,8.3v88.46a8.3,8.3,0,0,0,8.29,8.3h70.77a8.31,8.31,0,0,0,8.3-8.3V185.23A8.31,8.31,0,0,0,432.93,176.93Zm-8.29,88.47H370.45V228.91h54.19Zm0-53.08H370.45v-18.8h54.19Z" transform="translate(0 -35.39)"></path><path class="cls-1" d="M326.77,176.93H256a8.3,8.3,0,0,0-8.29,8.3v88.46A8.3,8.3,0,0,0,256,282h70.77a8.31,8.31,0,0,0,8.3-8.3V185.23A8.31,8.31,0,0,0,326.77,176.93Zm-8.29,88.47H264.29V228.91h54.19Zm0-53.08H264.29v-18.8h54.19Z" transform="translate(0 -35.39)"></path></svg>