<svg xmlns="http://www.w3.org/2000/svg" id="Capa_1" data-name="Capa 1" viewBox="0 0 443.44 491"><defs><style>.cls-1{fill:#fff;stroke:#000;stroke-miterlimit:10;}</style></defs><title>optimization-clock-white</title><path class="cls-1" d="M439.3,163.15a221.08,221.08,0,0,0-32.44-45.08l23.23-28.82A10,10,0,1,0,414.52,76.7l-22,27.31A221.15,221.15,0,0,0,295,53.36V10A10,10,0,0,0,285,0H209.83a10,10,0,0,0-10,10V52.34A222.19,222.19,0,0,0,97.52,104l-22-27.26A10,10,0,1,0,60,89.25L83.14,118A221.26,221.26,0,1,0,439.3,163.15ZM219.83,20H275V49.67a222.6,222.6,0,0,0-30.1-2,217.74,217.74,0,0,0-25,1.47ZM446.16,273.68A201.16,201.16,0,0,1,68.33,364.92c-53-97.44-16.84-219.82,80.6-272.81A201.22,201.22,0,0,1,446.16,273.68Z" transform="translate(-23.28 0.5)"></path><path class="cls-1" d="M249.89,116.55h.33a10,10,0,0,0,10-9.68l.17-5.45a10,10,0,0,0-20-.64l-.17,5.45A10,10,0,0,0,249.89,116.55Z" transform="translate(-23.28 0.5)"></path><path class="cls-1" d="M159.58,130.43a10,10,0,0,0,8.82,5.28,9.89,9.89,0,0,0,4.71-1.19,10,10,0,0,0,4.1-13.53l-2.57-4.81A10,10,0,0,0,157,125.62Z" transform="translate(-23.28 0.5)"></path><path class="cls-1" d="M112.38,174.7l-4.63-2.87a10,10,0,0,0-10.55,17l4.63,2.88a10,10,0,0,0,10.55-17Z" transform="translate(-23.28 0.5)"></path><path class="cls-1" d="M92.77,264a10,10,0,0,0-9.67-10.31l-5.45-.18a10,10,0,0,0-.64,20l5.45.18h.32A10,10,0,0,0,92.77,264Z" transform="translate(-23.28 0.5)"></path><path class="cls-1" d="M97.21,336.64l-4.81,2.57a10,10,0,1,0,9.44,17.63l4.81-2.57a10,10,0,0,0-9.44-17.63Z" transform="translate(-23.28 0.5)"></path><path class="cls-1" d="M164.69,398.24a10,10,0,0,0-13.77,3.23l-2.87,4.63a10,10,0,1,0,17,10.54l2.88-4.63A10,10,0,0,0,164.69,398.24Z" transform="translate(-23.28 0.5)"></path><path class="cls-1" d="M240.17,421.07a10,10,0,0,0-10.31,9.68l-.17,5.44a10,10,0,0,0,9.67,10.32h.33a10,10,0,0,0,10-9.68l.17-5.45A10,10,0,0,0,240.17,421.07Z" transform="translate(-23.28 0.5)"></path><path class="cls-1" d="M330.49,407.2a10,10,0,1,0-17.63,9.44l2.57,4.8A10,10,0,1,0,333.06,412Z" transform="translate(-23.28 0.5)"></path><path class="cls-1" d="M392.86,348.8l-4.63-2.87a10,10,0,1,0-10.54,17l4.63,2.87a10,10,0,1,0,10.54-17Z" transform="translate(-23.28 0.5)"></path><path class="cls-1" d="M413.05,264.17,407.6,264a10,10,0,1,0-.63,20l5.44.17h.33a10,10,0,0,0,.31-20Z" transform="translate(-23.28 0.5)"></path><path class="cls-1" d="M388.15,202.17a10,10,0,0,0,4.71-1.18l4.8-2.58a10,10,0,1,0-9.44-17.63l-4.8,2.58a10,10,0,0,0,4.73,18.81Z" transform="translate(-23.28 0.5)"></path><path class="cls-1" d="M338.79,117.76A10,10,0,0,0,325,121l-2.87,4.63a10,10,0,1,0,17,10.55l2.88-4.63A10,10,0,0,0,338.79,117.76Z" transform="translate(-23.28 0.5)"></path><path class="cls-1" d="M260.83,242.58a31.69,31.69,0,0,0-36.91,3l-77-48.88a10,10,0,1,0-10.72,16.89l77.26,49a31.8,31.8,0,0,0,30.95,39,31.79,31.79,0,0,0,16.41-59Zm-6.29,33.32a11.79,11.79,0,1,1-4-16.18A11.72,11.72,0,0,1,254.54,275.9Z" transform="translate(-23.28 0.5)"></path></svg>