<svg xmlns="http://www.w3.org/2000/svg" id="Warstwa_1" data-name="Warstwa 1" viewBox="0 0 472.63 511"><defs><style>.cls-1{fill:#fff;}</style></defs><title>paint-white</title><path class="cls-1" d="M475.13,22.76H416.86a7.49,7.49,0,0,0,0,15h58.27a2.5,2.5,0,0,1,2.49,2.49V333.51a7.49,7.49,0,0,0,15,0V40.22A17.48,17.48,0,0,0,475.13,22.76Z" transform="translate(-19.96 1)"></path><path class="cls-1" d="M485.11,358.62a7.48,7.48,0,0,0-7.49,7.48v101a28,28,0,1,1-55.91,0V300.58a42.93,42.93,0,1,0-85.85,0v50.63a28,28,0,0,1-55.91,0V313.84l38.1-38.1a20.25,20.25,0,0,0,5.31-19.2l91.83-91.83a20.29,20.29,0,0,0,0-28.64L316.84,37.73h67.42a7.49,7.49,0,1,0,0-15H301.87L284,4.92a20.29,20.29,0,0,0-28.64,0L163.58,96.74a20.35,20.35,0,0,0-4.89-.62,20.13,20.13,0,0,0-14.32,5.93l-39.72,39.72a20.29,20.29,0,0,0,0,28.64l52.67,52.67c-23.12,22.59-50.26,43.13-80.74,61.08a126.61,126.61,0,0,0-25.13,19.62c-14.08,14.09-24.35,30.47-28.91,46.13-5,17.2-2.67,31.79,6.6,41.06,6.19,6.18,14.67,9.21,24.47,9.21,14.35,0,31.5-6.49,48.32-19a7.49,7.49,0,0,0-9-12c-21.4,16-43.79,20.7-53.24,11.24-5.16-5.15-6.18-14.73-2.82-26.29C40.78,340.81,49.7,326.71,62,314.37a111.28,111.28,0,0,1,22.13-17.31c31.58-18.59,59.72-39.91,83.74-63.39l18.53,18.53c-23.48,24-44.8,52.16-63.39,83.74a103.9,103.9,0,0,1-8.13,11.81A7.48,7.48,0,1,0,126.67,357,118.47,118.47,0,0,0,136,343.54c18-30.49,38.49-57.63,61.08-80.76l52.67,52.67A20.1,20.1,0,0,0,264,321.39c.32,0,.64,0,1-.05v29.87a42.93,42.93,0,0,0,85.85,0V300.58a28,28,0,1,1,55.91,0V467.07a42.93,42.93,0,1,0,85.85,0v-101A7.48,7.48,0,0,0,485.11,358.62ZM266,15.51a5.28,5.28,0,0,1,7.46,0L404.6,146.66a5.28,5.28,0,0,1,0,7.46l-89.76,89.76-35-35L295,193.7a7.49,7.49,0,1,0-10.59-10.59l-15.17,15.17-53-53,15.17-15.17a7.48,7.48,0,0,0-10.58-10.58l-15.17,15.16-8.07-8.06,59.7-59.7a7.49,7.49,0,0,0-10.59-10.59L187,116l-10.75-10.76Zm-5.7,289.36-145-145a5.28,5.28,0,0,1,0-7.46L155,112.64a5.29,5.29,0,0,1,7.46,0L307.47,257.69a5.28,5.28,0,0,1,0,7.46l-39.72,39.72a5.26,5.26,0,0,1-7.46,0Z" transform="translate(-19.96 1)"></path><path class="cls-1" d="M167.45,173.48a7.49,7.49,0,1,0-10.59,10.59l79.19,79.18a7.48,7.48,0,0,0,10.58-10.58Z" transform="translate(-19.96 1)"></path><path class="cls-1" d="M442.65,180.92h-.07a7.53,7.53,0,1,0,.07,0Z" transform="translate(-19.96 1)"></path><path class="cls-1" d="M448.82,201.38a7.49,7.49,0,0,0,.17,15h.1a7.49,7.49,0,0,0-.1-15h-.17Z" transform="translate(-19.96 1)"></path><path class="cls-1" d="M402.36,224.44a7.52,7.52,0,1,0,.08,0Z" transform="translate(-19.96 1)"></path></svg>