<svg xmlns="http://www.w3.org/2000/svg" id="Warstwa_1" data-name="Warstwa 1" viewBox="0 0 513 513"><defs><style>.cls-1{fill:#fff;stroke:#000;stroke-miterlimit:10;}</style></defs><title>responsive-design-white</title><path class="cls-1" d="M502,350H492V30A30,30,0,0,0,462,0H50A30,30,0,0,0,20,30V350H10A10,10,0,0,0,0,360v30a30,30,0,0,0,30,30H272.65v62a30,30,0,0,0,30,30H422a30,30,0,0,0,30-30V420h30a30,30,0,0,0,30-30V360A10,10,0,0,0,502,350Zm-50,0V330h20v20ZM50,20H462a10,10,0,0,1,10,10V40H40V30A10,10,0,0,1,50,20ZM40,330H50a10,10,0,0,0,0-20H40V60H472V310H452V242a30,30,0,0,0-30-30H302.65a29.8,29.8,0,0,0-12.93,2.93L246.79,172h15.86a10,10,0,0,0,0-20h-40a10,10,0,0,0-10,10v40a10,10,0,0,0,20,0V186.14l42.93,42.93A29.83,29.83,0,0,0,272.65,242v68H140a10,10,0,0,0,0,20H272.65v30H206a10,10,0,0,0-10-10H40ZM30,400a10,10,0,0,1-10-10V370H188.68A20,20,0,0,0,206,380h66.65v20Zm402,82a10,10,0,0,1-10,10H302.65a10,10,0,0,1-10-10V246.14L338.51,292H322.65a10,10,0,0,0,0,20h40a10,10,0,0,0,10-10V262a10,10,0,0,0-20,0v15.86L306.79,232H422a10,10,0,0,1,10,10Zm60-92a10,10,0,0,1-10,10H452V370h40Z" transform="translate(0.5 0.5)"></path><path class="cls-1" d="M362.33,462h0a10,10,0,1,0,10,10A10,10,0,0,0,362.32,462Z" transform="translate(0.5 0.5)"></path><path class="cls-1" d="M387,100h55a10,10,0,0,0,0-20H387a10,10,0,0,0,0,20Z" transform="translate(0.5 0.5)"></path><path class="cls-1" d="M342,100a10,10,0,0,0,0-20h0a10,10,0,0,0,0,20Z" transform="translate(0.5 0.5)"></path><path class="cls-1" d="M95,310h0a10,10,0,1,0,10,10A10,10,0,0,0,95,310Z" transform="translate(0.5 0.5)"></path></svg>