<svg xmlns="http://www.w3.org/2000/svg" id="Capa_1" data-name="Capa 1" viewBox="0 0 513 499.89"><defs><style>.cls-1{fill:#fff;stroke:#000;stroke-miterlimit:10;}</style></defs><title>seo-white</title><path class="cls-1" d="M326.62,133.06a25,25,0,1,0-20-10l-41.08,57.4a24.91,24.91,0,0,0-24.8,5.46L213.39,170.4a24.55,24.55,0,0,0,.56-5.25,25,25,0,1,0-49.44,5.25l-27.37,15.54a25,25,0,1,0,8,18.29,25.37,25.37,0,0,0-.56-5.26l27.38-15.53a24.93,24.93,0,0,0,34,0L233.35,199a24.55,24.55,0,0,0-.56,5.25,25,25,0,1,0,45-15l41.08-57.4A25,25,0,0,0,326.62,133.06Zm0-35a10,10,0,1,1-10,10A10,10,0,0,1,326.62,98.06ZM120.11,214.23a10,10,0,1,1,10-10A10,10,0,0,1,120.11,214.23ZM189,175.15a10,10,0,1,1,10-10A10,10,0,0,1,189,175.15Zm68.84,39.08a10,10,0,1,1,10-10A10,10,0,0,1,257.79,214.23Z" transform="translate(0.5 -6.06)"></path><path class="cls-1" d="M418.8,377H21.22A6.22,6.22,0,0,1,15,370.75V61.33a6.22,6.22,0,0,1,6.22-6.21H56.57a7.5,7.5,0,0,0,0-15H21.22A21.24,21.24,0,0,0,0,61.33V370.75A21.24,21.24,0,0,0,21.22,392H72.93v16.51a17.07,17.07,0,0,0,17,17h75.07l-35.34,69a7.5,7.5,0,0,0,13.35,6.84l38.85-75.84h82.92l38.84,75.84A7.5,7.5,0,1,0,317,494.52l-35.34-69h75.08a17.06,17.06,0,0,0,17.05-17V392h45a7.51,7.51,0,0,0,0-15Zm-60,31.51a2.05,2.05,0,0,1-2.05,2H90a2.05,2.05,0,0,1-2-2V392H358.81Z" transform="translate(0.5 -6.06)"></path><path class="cls-1" d="M86.57,55.12h339a6.22,6.22,0,0,1,6.22,6.21v71.31a7.5,7.5,0,0,0,15,0V61.33a21.24,21.24,0,0,0-21.22-21.21H265V25.37A18.83,18.83,0,0,0,246.18,6.56H200.56a18.84,18.84,0,0,0-18.82,18.81V40.12H86.57a7.5,7.5,0,0,0,0,15ZM196.74,25.37a3.82,3.82,0,0,1,3.82-3.81h45.62A3.82,3.82,0,0,1,250,25.37V40.12H196.74V25.37Z" transform="translate(0.5 -6.06)"></path><path class="cls-1" d="M104.9,267.58a7.5,7.5,0,0,0-7.5,7.5v66.27a7.5,7.5,0,0,0,7.5,7.5h30.43a7.5,7.5,0,0,0,7.5-7.5V275.08a7.5,7.5,0,0,0-7.5-7.5Zm22.93,66.27H112.4V282.58h15.43Z" transform="translate(0.5 -6.06)"></path><path class="cls-1" d="M173.74,229.25a7.5,7.5,0,0,0-7.5,7.5v104.6a7.5,7.5,0,0,0,7.5,7.5h30.42a7.5,7.5,0,0,0,7.5-7.5V236.75a7.49,7.49,0,0,0-7.5-7.5Zm22.92,104.6H181.24v-89.6h15.42Z" transform="translate(0.5 -6.06)"></path><path class="cls-1" d="M242.57,267.58a7.5,7.5,0,0,0-7.5,7.5v66.27a7.5,7.5,0,0,0,7.5,7.5H273a7.5,7.5,0,0,0,7.5-7.5V275.08a7.5,7.5,0,0,0-7.5-7.5Zm22.93,66.27H250.07V282.58H265.5Z" transform="translate(0.5 -6.06)"></path><path class="cls-1" d="M311.41,311.83a7.5,7.5,0,0,0-7.5,7.5v22a7.5,7.5,0,0,0,7.5,7.5h30.43a7.5,7.5,0,1,0,0-15H318.91V319.33A7.5,7.5,0,0,0,311.41,311.83Z" transform="translate(0.5 -6.06)"></path><path class="cls-1" d="M508.17,384l-43-74.53a98.07,98.07,0,1,0-97,27.68,98.63,98.63,0,0,0,25.53,3.38A96.53,96.53,0,0,0,415.78,338l43,74.53A28.51,28.51,0,1,0,508.17,384ZM372.05,322.68a83,83,0,1,1,63-8.29A82.48,82.48,0,0,1,372.05,322.68ZM490.24,410A13.51,13.51,0,0,1,471.79,405l-41.39-71.7a101.07,101.07,0,0,0,12.15-5.95,98.9,98.9,0,0,0,11.23-7.57l41.4,71.71A13.48,13.48,0,0,1,490.24,410Z" transform="translate(0.5 -6.06)"></path><path class="cls-1" d="M461.54,263.61A70.93,70.93,0,0,0,458,212.19a7.5,7.5,0,0,0-13.57,6.4,56.16,56.16,0,1,1-16.93-20.93,7.5,7.5,0,0,0,9.05-12,71.22,71.22,0,1,0,25,77.91Z" transform="translate(0.5 -6.06)"></path></svg>