<svg xmlns="http://www.w3.org/2000/svg" id="Outline" viewBox="0 0 480 400.04"><defs><style>.cls-1{fill:#fff;}</style></defs><title>shopping-cart-white</title><path class="cls-1" d="M472,56H424a24,24,0,0,0-24,23.09L385.44,152H24a8,8,0,0,0-8,8,7.54,7.54,0,0,0,.16,1.57l32,160A8,8,0,0,0,56,328H360a16,16,0,0,1,0,32H56a8,8,0,0,0-8,8v32a8,8,0,0,0,8,8H68.31a32,32,0,1,0,55.38,0H292.3a32,32,0,1,0,55.4,0H360a8,8,0,0,0,8-8V375a32,32,0,0,0,1.47-61.56l30.37-151.86L412,100.77A23.86,23.86,0,0,0,424,104h48a24,24,0,0,0,0-48ZM112,424a16,16,0,1,1-16-16A16,16,0,0,1,112,424Zm224,0a16,16,0,1,1-16-16A16,16,0,0,1,336,424Zm16-32H64V376H352ZM163.59,232h-56.7l-9.6-64h63.1Zm12.82-64h63.18l-3.2,64H179.61Zm-12,80,3.2,64h-48.7l-9.6-64Zm16,0h55.18l-3.2,64H183.61Zm71.2,0h55.1l-9.6,64h-48.7Zm.8-16,3.2-64h63.1l-9.6,64ZM81.11,168l9.6,64H46.56l-12.8-64ZM49.76,248H93.11l9.6,64H62.56Zm303.68,64H313.29l9.6-64h43.35Zm16-80H325.29l9.6-64h47.35ZM472,88H424a8,8,0,0,1,0-16h48a8,8,0,0,1,0,16Z" transform="translate(-16 -56)"></path></svg>