<svg xmlns="http://www.w3.org/2000/svg" id="Capa_1" data-name="Capa 1" viewBox="0 0 453.43 513"><defs><style>.cls-1{fill:#fff;stroke:#000;stroke-miterlimit:10;}</style></defs><title>speed-white</title><path class="cls-1" d="M368.41,463.07a10,10,0,0,0-13.84-2.92A196.42,196.42,0,0,1,247.05,492C138.28,492,49.79,403.51,49.79,294.73A196.3,196.3,0,0,1,83.42,184.52a10,10,0,0,0-16.58-11.18A217.3,217.3,0,0,0,365.49,476.91,10,10,0,0,0,368.41,463.07Z" transform="translate(-29.29 0.5)"></path><path class="cls-1" d="M402,432.75a10,10,0,0,0-14.15.14l-.33.34a10,10,0,1,0,14.2,14.08l.41-.42A10,10,0,0,0,402,432.75Z" transform="translate(-29.29 0.5)"></path><path class="cls-1" d="M442.51,163.89a10,10,0,0,0,14.14,0l16.66-16.66a30.49,30.49,0,0,0,0-43.06l-35.7-35.7a30.46,30.46,0,0,0-43.05,0L377.9,85.13a10,10,0,0,0,0,14.14l4.73,4.73-12,12a214.7,214.7,0,0,0-84.58-35V64h22a10,10,0,0,0,10-10V10a10,10,0,0,0-10-10h-122a10,10,0,0,0-10,10V54a10,10,0,0,0,10,10h22V81a216,216,0,0,0-80.46,32.26,10,10,0,0,0,11,16.7A196.42,196.42,0,0,1,247.06,97.47c108.77,0,197.26,88.49,197.26,197.26a196.74,196.74,0,0,1-29.62,104,10,10,0,0,0,17,10.56,217.51,217.51,0,0,0-5.89-238.17l12-12ZM266.05,78.3c-6.28-.54-12.61-.83-19-.83s-12.7.28-19,.82V64h38V78.3Zm-48-34.3h-22V20h102V44h-80ZM413.53,155.13q-6.09-7.24-12.85-14t-14-12.85l10.11-10.1L423.64,145Zm-9.69-58.2h0l-4.72-4.72,9.59-9.59a10.44,10.44,0,0,1,14.77,0l35.7,35.7a10.46,10.46,0,0,1,0,14.77l-9.59,9.59L444.87,138h0Z" transform="translate(-29.29 0.5)"></path><path class="cls-1" d="M247.05,153a10,10,0,0,0-10,10v22a10,10,0,0,0,20,0V163A10,10,0,0,0,247.05,153Z" transform="translate(-29.29 0.5)"></path><path class="cls-1" d="M347.28,194.51a10,10,0,1,0,2.93,7.07A10.08,10.08,0,0,0,347.28,194.51Z" transform="translate(-29.29 0.5)"></path><path class="cls-1" d="M378.8,284.73h-22a10,10,0,1,0,0,20h22a10,10,0,0,0,0-20Z" transform="translate(-29.29 0.5)"></path><path class="cls-1" d="M347.28,380.82a10,10,0,1,0,2.93,7.07A10.08,10.08,0,0,0,347.28,380.82Z" transform="translate(-29.29 0.5)"></path><path class="cls-1" d="M247.05,394.47a10,10,0,0,0-10,10v22a10,10,0,0,0,20,0v-22A10,10,0,0,0,247.05,394.47Z" transform="translate(-29.29 0.5)"></path><path class="cls-1" d="M161,380.82a10,10,0,1,0,2.93,7.07A10.08,10.08,0,0,0,161,380.82Z" transform="translate(-29.29 0.5)"></path><path class="cls-1" d="M137.31,284.73h-22a10,10,0,0,0,0,20h22a10,10,0,0,0,0-20Z" transform="translate(-29.29 0.5)"></path><path class="cls-1" d="M161,194.51a10,10,0,1,0,2.93,7.07A10.08,10.08,0,0,0,161,194.51Z" transform="translate(-29.29 0.5)"></path><path class="cls-1" d="M325.13,216.65a10,10,0,0,0-12.25-1.48l-82.55,50a25.76,25.76,0,0,0-3,1.9,34,34,0,1,0,47.31,47.49,23.27,23.27,0,0,0,2-3.1l50-82.54A10,10,0,0,0,325.13,216.65Zm-65.71,84.63-.82,1.36a14,14,0,1,1-19.45-19.45l1.36-.82a13.87,13.87,0,0,1,6.54-1.64,14,14,0,0,1,12.37,20.55Zm15.63-25.81a34.33,34.33,0,0,0-8.73-8.73l22.12-13.39Z" transform="translate(-29.29 0.5)"></path><path class="cls-1" d="M247.05,121.5c-95.52,0-173.23,77.71-173.23,173.23S151.53,468,247.05,468s173.24-77.71,173.24-173.24S342.58,121.5,247.05,121.5Zm0,326.47c-84.49,0-153.23-68.74-153.23-153.24S162.56,141.5,247.05,141.5s153.24,68.74,153.24,153.23S331.55,448,247.05,448Z" transform="translate(-29.29 0.5)"></path><path class="cls-1" d="M108.18,140.49a10,10,0,1,0,2.93,7.08A10.07,10.07,0,0,0,108.18,140.49Z" transform="translate(-29.29 0.5)"></path></svg>