<svg xmlns="http://www.w3.org/2000/svg" id="Warstwa_1" data-name="Warstwa 1" viewBox="0 0 431.25 480.01"><defs><style>.cls-1{fill:#fff;}</style></defs><title>spread-white-2</title><path class="cls-1" d="M415.68,208.16a32,32,0,0,0-30.81,23.94H367.76v16h17.11a31.88,31.88,0,1,0,30.81-39.92Zm0,47.91a16,16,0,1,1,16-16,16,16,0,0,1-16,16h0Z" transform="translate(-24.38 -0.01)"></path><path class="cls-1" d="M183.67,64.31a31.45,31.45,0,0,0,13.58-3.15l15.27,18.33a31.66,31.66,0,0,0,19.06,47.58v17.1h16v-17.1a31.65,31.65,0,0,0,19.08-47.58l15.27-18.33a31.44,31.44,0,0,0,13.57,3.15A32.15,32.15,0,1,0,269.59,51L255,68.46a30.78,30.78,0,0,0-30.86,0L209.55,51a31.86,31.86,0,1,0-25.88,13.36ZM295.47,16.4a16,16,0,1,1-16,16,16,16,0,0,1,16-16Zm-55.9,63.89a16,16,0,1,1-16,16A16,16,0,0,1,239.57,80.29ZM183.67,16.4a16,16,0,1,1-16,16,16,16,0,0,1,16-16Z" transform="translate(-24.38 -0.01)"></path><path class="cls-1" d="M305.79,162.48l11.35,11.29,34.13-34.13a31.51,31.51,0,0,0,16.12,4.53,31.94,31.94,0,1,0-31.94-31.94A31.51,31.51,0,0,0,340,128.35Zm61.55-66.22a16,16,0,1,1-16,16A16,16,0,0,1,367.34,96.26Z" transform="translate(-24.38 -0.01)"></path><path class="cls-1" d="M401.58,86.28l5.49-5.49a31.5,31.5,0,0,0,16.13,4.52,31.94,31.94,0,1,0-31.95-31.94,31.6,31.6,0,0,0,4.53,16.12L390.29,75ZM423.2,37.4a16,16,0,1,1-16,16,16,16,0,0,1,16-16Z" transform="translate(-24.38 -0.01)"></path><path class="cls-1" d="M111.8,144.17a31.51,31.51,0,0,0,16.12-4.53l34.13,34.13,11.29-11.29-34.13-34.13a31.51,31.51,0,0,0,4.53-16.12,31.94,31.94,0,1,0-31.94,31.94Zm0-47.91a16,16,0,1,1-16,16A16,16,0,0,1,111.8,96.26Z" transform="translate(-24.38 -0.01)"></path><path class="cls-1" d="M56.33,84.86a31.63,31.63,0,0,0,16.13-4.52L78,85.83,89.24,74.55l-5.49-5.5a31.59,31.59,0,0,0,4.52-16.12A31.94,31.94,0,1,0,56.32,84.86Zm0-47.91a16,16,0,1,1-16,16A16,16,0,0,1,56.33,37Z" transform="translate(-24.38 -0.01)"></path><path class="cls-1" d="M367.34,335.83a31.51,31.51,0,0,0-16.12,4.53l-34.08-34.14-11.3,11.3L340,351.65a31.51,31.51,0,0,0-4.53,16.12,31.94,31.94,0,1,0,31.94-31.94Zm0,47.91a16,16,0,1,1,16-16A16,16,0,0,1,367.34,383.74Z" transform="translate(-24.38 -0.01)"></path><path class="cls-1" d="M423.68,394.59a31.51,31.51,0,0,0-16.13,4.53l-5.49-5.49-11.29,11.28,5.49,5.49a31.61,31.61,0,0,0-4.53,16.13,31.95,31.95,0,1,0,31.95-31.95Zm0,47.92a16,16,0,1,1,16-16,16,16,0,0,1-16,16Z" transform="translate(-24.38 -0.01)"></path><path class="cls-1" d="M295.47,415.68a31.78,31.78,0,0,0-13.57,3.2l-15.27-18.37a31.67,31.67,0,0,0-19.08-47.58v-17.1h-16v17.1a31.64,31.64,0,0,0-19.06,47.58l-15.27,18.37a31.79,31.79,0,0,0-13.58-3.2,32.16,32.16,0,1,0,25.88,13.37l14.62-17.51a30.78,30.78,0,0,0,30.86,0l14.59,17.51a31.87,31.87,0,1,0,25.88-13.37ZM183.67,463.6a16,16,0,1,1,16-16A16,16,0,0,1,183.67,463.6Zm55.9-63.89a16,16,0,1,1,16-16,16,16,0,0,1-16,16Zm55.9,63.89a16,16,0,1,1,16-16,16,16,0,0,1-16,16Z" transform="translate(-24.38 -0.01)"></path><path class="cls-1" d="M78,393.62l-5.49,5.49a31.85,31.85,0,1,0,15.81,27.43h0a31.63,31.63,0,0,0-4.52-16.13l5.49-5.5ZM56.34,442.5a16,16,0,1,1,16-16A16,16,0,0,1,56.34,442.5Z" transform="translate(-24.38 -0.01)"></path><path class="cls-1" d="M173.34,317.52l-11.29-11.3-34.13,34.14a31.51,31.51,0,0,0-16.12-4.53,31.94,31.94,0,1,0,31.94,31.94h0a31.51,31.51,0,0,0-4.53-16.12ZM111.8,383.74a16,16,0,1,1,16-16A16,16,0,0,1,111.8,383.74Z" transform="translate(-24.38 -0.01)"></path><path class="cls-1" d="M335.4,232h16v16h-16Z" transform="translate(-24.38 -0.01)"></path><path class="cls-1" d="M64.33,271.88a31.93,31.93,0,0,0,30.81-24h17.11V231.94H95.14a31.88,31.88,0,1,0-30.81,39.94Zm0-47.91a16,16,0,1,1-16,16,16,16,0,0,1,16-16h0Z" transform="translate(-24.38 -0.01)"></path><path class="cls-1" d="M127.77,232h16v16h-16Z" transform="translate(-24.38 -0.01)"></path><path class="cls-1" d="M239.57,160.14A79.86,79.86,0,1,0,319.43,240,79.85,79.85,0,0,0,239.57,160.14ZM199.64,289.79v-.55a99.53,99.53,0,0,1,23.5-37.49l.3-.31a31,31,0,0,0,32.24,0l.31.31a99.53,99.53,0,0,1,23.5,37.49v.55A63.63,63.63,0,0,1,199.64,289.79ZM239.57,240a16,16,0,1,1,16-16A16,16,0,0,1,239.57,240Zm52.08,36.87a115.33,115.33,0,0,0-24.36-36.42l-.31-.3A31.52,31.52,0,0,0,271.51,224a31.94,31.94,0,0,0-63.88,0,31.59,31.59,0,0,0,4.51,16.15l-.31.3a115.33,115.33,0,0,0-24.36,36.42,63.89,63.89,0,1,1,104.16,0Z" transform="translate(-24.38 -0.01)"></path></svg>