<svg xmlns="http://www.w3.org/2000/svg" id="Warstwa_1" data-name="Warstwa 1" viewBox="0 0 479.14 480"><defs><style>.cls-1{fill:#fff;}</style></defs><title>spread-white</title><path class="cls-1" d="M448.06,208.06A32,32,0,0,0,417.25,232H400.14v16h17.11a31.88,31.88,0,1,0,30.81-39.92Zm0,47.91a16,16,0,1,1,16-16A16,16,0,0,1,448.06,256Z" transform="translate(-0.86 0)"></path><path class="cls-1" d="M184.53,64.31a31.48,31.48,0,0,0,13.58-3.15l15.27,18.33a31.65,31.65,0,0,0,19.06,47.58v17.1h16v-17.1a31.66,31.66,0,0,0,19.08-47.58l15.27-18.33a31.44,31.44,0,0,0,13.57,3.15A32.15,32.15,0,1,0,270.45,51L255.86,68.46a30.78,30.78,0,0,0-30.86,0L210.41,51a31.87,31.87,0,1,0-25.88,13.36ZM296.33,16.4a16,16,0,1,1-16,16A16,16,0,0,1,296.33,16.4Zm-55.9,63.89a16,16,0,1,1-16,16A16,16,0,0,1,240.43,80.29ZM184.53,16.4a16,16,0,1,1-16,16A16,16,0,0,1,184.53,16.4Z" transform="translate(-0.86 0)"></path><path class="cls-1" d="M306.65,162.48,318,173.77l34.13-34.13a31.51,31.51,0,0,0,16.12,4.53,31.94,31.94,0,1,0-31.94-31.94,31.48,31.48,0,0,0,4.53,16.12ZM368.2,96.26a16,16,0,1,1-16,16A16,16,0,0,1,368.2,96.26Z" transform="translate(-0.86 0)"></path><path class="cls-1" d="M394.5,74.64l9.35-9.35,11.29,11.29-9.35,9.36Z" transform="translate(-0.86 0)"></path><path class="cls-1" d="M426.44,65.28l5.49-5.49a31.5,31.5,0,0,0,16.13,4.52,31.94,31.94,0,1,0-31.95-31.94,31.55,31.55,0,0,0,4.53,16.12L415.15,54ZM448.06,16.4a16,16,0,1,1-16,16A16,16,0,0,1,448.06,16.4Z" transform="translate(-0.86 0)"></path><path class="cls-1" d="M112.66,144.17a31.48,31.48,0,0,0,16.12-4.53l34.13,34.13,11.29-11.29-34.13-34.13a31.48,31.48,0,0,0,4.53-16.12,31.94,31.94,0,1,0-31.94,31.94Zm0-47.91a16,16,0,1,1-16,16A16,16,0,0,1,112.66,96.26Z" transform="translate(-0.86 0)"></path><path class="cls-1" d="M32.8,64.31a31.5,31.5,0,0,0,16.13-4.52l5.49,5.49L65.71,54l-5.49-5.5a31.44,31.44,0,0,0,4.52-16.12A31.94,31.94,0,1,0,32.8,64.31Zm0-47.91a16,16,0,1,1-16,16A16,16,0,0,1,32.8,16.4Z" transform="translate(-0.86 0)"></path><path class="cls-1" d="M65.72,76.58,77,65.29l9.36,9.35-11.3,11.3Z" transform="translate(-0.86 0)"></path><path class="cls-1" d="M368.2,335.83a31.51,31.51,0,0,0-16.12,4.53L318,306.22l-11.3,11.3,34.14,34.13a31.51,31.51,0,0,0-4.53,16.12,31.94,31.94,0,1,0,31.94-31.94Zm0,47.91a16,16,0,1,1,16-16A16,16,0,0,1,368.2,383.74Z" transform="translate(-0.86 0)"></path><path class="cls-1" d="M448.06,415.68a31.61,31.61,0,0,0-16.13,4.53l-5.49-5.49L415.15,426l5.49,5.49a31.61,31.61,0,0,0-4.53,16.13,31.95,31.95,0,1,0,31.95-31.95Zm0,47.92a16,16,0,1,1,16-16A16,16,0,0,1,448.06,463.6Z" transform="translate(-0.86 0)"></path><path class="cls-1" d="M296.33,415.68a31.74,31.74,0,0,0-13.57,3.2l-15.27-18.37a31.66,31.66,0,0,0-19.08-47.58v-17.1h-16v17.1a31.65,31.65,0,0,0-19.06,47.58l-15.27,18.37a31.79,31.79,0,0,0-13.58-3.2,32.17,32.17,0,1,0,25.88,13.37L225,411.54a30.78,30.78,0,0,0,30.86,0l14.59,17.51a31.87,31.87,0,1,0,25.88-13.37ZM184.53,463.6a16,16,0,1,1,16-16A16,16,0,0,1,184.53,463.6Zm55.9-63.89a16,16,0,1,1,16-16A16,16,0,0,1,240.43,399.71Zm55.9,63.89a16,16,0,1,1,16-16A16,16,0,0,1,296.33,463.6Z" transform="translate(-0.86 0)"></path><path class="cls-1" d="M394.5,405.36l11.29-11.29,9.35,9.35-11.29,11.3Z" transform="translate(-0.86 0)"></path><path class="cls-1" d="M54.42,414.72l-5.49,5.49a31.61,31.61,0,0,0-16.13-4.53,31.95,31.95,0,1,0,31.94,31.95,31.5,31.5,0,0,0-4.52-16.13L65.71,426ZM32.8,463.6a16,16,0,1,1,16-16A16,16,0,0,1,32.8,463.6Z" transform="translate(-0.86 0)"></path><path class="cls-1" d="M174.2,317.52l-11.29-11.3-34.13,34.14a31.48,31.48,0,0,0-16.12-4.53,31.94,31.94,0,1,0,31.94,31.94,31.51,31.51,0,0,0-4.53-16.12Zm-61.54,66.22a16,16,0,1,1,16-16A16,16,0,0,1,112.66,383.74Z" transform="translate(-0.86 0)"></path><path class="cls-1" d="M65.72,403.42l9.35-9.35,11.3,11.29L77,414.72Z" transform="translate(-0.86 0)"></path><path class="cls-1" d="M336.26,232h16v16h-16Z" transform="translate(-0.86 0)"></path><path class="cls-1" d="M368.2,232h16v16h-16Z" transform="translate(-0.86 0)"></path><path class="cls-1" d="M32.8,271.94a31.93,31.93,0,0,0,30.81-24H80.72V232H63.61A31.88,31.88,0,1,0,32.8,271.94Zm0-47.91a16,16,0,1,1-16,16A16,16,0,0,1,32.8,224Z" transform="translate(-0.86 0)"></path><path class="cls-1" d="M128.63,232h16v16h-16Z" transform="translate(-0.86 0)"></path><path class="cls-1" d="M96.69,232h16v16h-16Z" transform="translate(-0.86 0)"></path><path class="cls-1" d="M240.43,160.14A79.86,79.86,0,1,0,320.29,240,79.87,79.87,0,0,0,240.43,160.14ZM200.5,289.79v-.55A99.6,99.6,0,0,1,224,251.75l.3-.31a31,31,0,0,0,32.24,0l.31.31a99.57,99.57,0,0,1,23.5,37.49v.55A63.62,63.62,0,0,1,200.5,289.79ZM240.43,240a16,16,0,1,1,16-16A16,16,0,0,1,240.43,240Zm52.08,36.87a115.33,115.33,0,0,0-24.36-36.42l-.31-.3A31.51,31.51,0,0,0,272.37,224a31.94,31.94,0,1,0-63.88,0A31.51,31.51,0,0,0,213,240.15l-.31.3a115.33,115.33,0,0,0-24.36,36.42,63.89,63.89,0,1,1,104.16,0Z" transform="translate(-0.86 0)"></path></svg>