<svg xmlns="http://www.w3.org/2000/svg" id="Capa_1" data-name="Capa 1" viewBox="0 0 285.57 491"><defs><style>.cls-1{fill:#fff;stroke:#000;stroke-miterlimit:10;}</style></defs><title>technology-rwd-white</title><path class="cls-1" d="M377.28,0H112.72a10,10,0,0,0-10,10V480a10,10,0,0,0,10,10H377.28a10,10,0,0,0,10-10V10A10,10,0,0,0,377.28,0Zm-10,20V90.51H122.72V20Zm0,90.51v271.3H122.72V110.51ZM122.72,470V401.81H367.28V470Z" transform="translate(-102.22 0.5)"></path><path class="cls-1" d="M218.56,66.41h65.69a10,10,0,0,0,0-20H218.56a10,10,0,0,0,0,20Z" transform="translate(-102.22 0.5)"></path><circle class="cls-1" cx="149.19" cy="437.15" r="16.67"></circle><path class="cls-1" d="M160.62,252l26.09,26.09c4.41,4.41,9.69,4.39,13.94,0a10,10,0,0,0,0-13.93l-9.27-9.28H298.63l-9.28,9.28a9.8,9.8,0,0,0,0,13.93c4.63,4.47,10.25,3.68,13.94,0L329.38,252a9.85,9.85,0,0,0,0-13.94l-26.09-26.09a9.86,9.86,0,0,0-13.94,13.94l9.28,9.27H191.38l9.27-9.27a9.86,9.86,0,0,0-13.94-13.94L160.62,238a9.85,9.85,0,0,0,0,13.94Z" transform="translate(-102.22 0.5)"></path></svg>