<svg xmlns="http://www.w3.org/2000/svg" id="Capa_1" data-name="Capa 1" viewBox="0 0 470.33 470.33"><defs><style>.cls-1{fill:#fff;stroke:#000;stroke-miterlimit:10;}</style></defs><title>three-white</title><path class="cls-1" d="M341.33,256V224a32,32,0,0,0-32-32,32,32,0,0,0,32-32V128a42.66,42.66,0,0,0-42.66-42.67H213.33V128h85.34v42.67H256v42.66h42.67V256H213.33v42.67h85.34A42.66,42.66,0,0,0,341.33,256Z" transform="translate(0.5 0.5)"></path><path class="cls-1" d="M42.67,85.33H0V426.67a42.65,42.65,0,0,0,42.67,42.66H384V426.67H42.67Z" transform="translate(0.5 0.5)"></path><path class="cls-1" d="M426.67,0H128A42.66,42.66,0,0,0,85.33,42.67V341.33A42.66,42.66,0,0,0,128,384H426.67a42.65,42.65,0,0,0,42.66-42.67V42.67A42.65,42.65,0,0,0,426.67,0Zm0,341.33H128V42.67H426.67Z" transform="translate(0.5 0.5)"></path></svg>