<svg xmlns="http://www.w3.org/2000/svg" id="Capa_1" data-name="Capa 1" viewBox="0 0 513 432.84"><defs><style>.cls-1{fill:#fff;stroke:#000;stroke-miterlimit:10;}</style></defs><title>tool-monitor-white</title><path class="cls-1" d="M480.45,40.08H31.55A31.58,31.58,0,0,0,0,71.63V376.24a31.58,31.58,0,0,0,31.55,31.55H183.38l-6.15,49.13H151.79a7.5,7.5,0,0,0,0,15H360.21a7.5,7.5,0,0,0,0-15H334.77l-6.14-49.13H480.45A31.58,31.58,0,0,0,512,376.24V71.63A31.58,31.58,0,0,0,480.45,40.08ZM192.35,456.92l6.14-49.13H226.1l2.7,10.83a28,28,0,0,0,54.4,0l2.71-10.83h27.6l6.14,49.13Zm49.21-49.13h28.88l-1.8,7.19a13,13,0,0,1-25.29,0ZM497,376.24h0a16.56,16.56,0,0,1-16.55,16.55H31.55A16.56,16.56,0,0,1,15,376.24V71.63A16.56,16.56,0,0,1,31.55,55.08h448.9A16.56,16.56,0,0,1,497,71.63V376.24Z" transform="translate(0.5 -39.58)"></path><path class="cls-1" d="M424.34,72.15H39.56a7.5,7.5,0,0,0-7.5,7.5V368.23a7.5,7.5,0,0,0,7.5,7.5h16a7.5,7.5,0,1,0,0-15H47.06V87.15H424.34a7.5,7.5,0,0,0,0-15Z" transform="translate(0.5 -39.58)"></path><path class="cls-1" d="M472.44,72.15h-16a7.5,7.5,0,0,0,0,15h8.54V360.73H87.66a7.5,7.5,0,1,0,0,15H472.43a7.5,7.5,0,0,0,7.5-7.5V79.65A7.48,7.48,0,0,0,472.44,72.15Z" transform="translate(0.5 -39.58)"></path><path class="cls-1" d="M356,217.48h0a13,13,0,0,0-12.79-13.24H329.58a78.74,78.74,0,0,0-3.44-13.35l11.79-7a13.5,13.5,0,0,0,4.68-18.1,12.55,12.55,0,0,0-17.47-4.84L313.32,168a77.63,77.63,0,0,0-9.42-9.76L310.73,146a13.5,13.5,0,0,0-4.68-18.09,12.55,12.55,0,0,0-17.47,4.84l-6.81,12.21a72.2,72.2,0,0,0-12.89-3.56V127.25A13,13,0,0,0,256.1,114h-.2a13,13,0,0,0-12.79,13.25v14.11a72.32,72.32,0,0,0-12.88,3.56l-6.81-12.21A12.55,12.55,0,0,0,206,127.87,13.5,13.5,0,0,0,201.27,146l6.83,12.25a77.63,77.63,0,0,0-9.42,9.76l-11.83-7.07a12.53,12.53,0,0,0-17.46,4.84,13.51,13.51,0,0,0,4.67,18.1l11.8,7a78.74,78.74,0,0,0-3.44,13.35H168.78A13,13,0,0,0,156,217.48h0a13,13,0,0,0,12.78,13.25h13.64a79,79,0,0,0,3.44,13.35l-11.8,7a13.51,13.51,0,0,0-4.67,18.1,12.54,12.54,0,0,0,17.46,4.84L198.68,267a77.63,77.63,0,0,0,9.42,9.76L201.27,289A13.5,13.5,0,0,0,206,307.1a12.55,12.55,0,0,0,17.47-4.84L230.23,290a70.68,70.68,0,0,0,12.88,3.56v14.12A13,13,0,0,0,255.9,321h.2a13,13,0,0,0,12.78-13.25V293.6A70.56,70.56,0,0,0,281.77,290l6.81,12.22a12.55,12.55,0,0,0,17.47,4.84A13.5,13.5,0,0,0,310.73,289l-6.83-12.25a77.63,77.63,0,0,0,9.42-9.76l11.82,7.07a12.55,12.55,0,0,0,17.47-4.84,13.5,13.5,0,0,0-4.68-18.1l-11.79-7a79,79,0,0,0,3.44-13.35h13.63A13,13,0,0,0,356,217.48Zm-99.9,50.79h-.2c-27,0-49-22.78-49-50.79s22-50.78,49-50.78h.2c27,0,49,22.78,49,50.78S283.13,268.27,256.1,268.27Z" transform="translate(0.5 -39.58)"></path></svg>