<svg xmlns="http://www.w3.org/2000/svg" id="Warstwa_1" data-name="Warstwa 1" viewBox="0 0 497 497"><defs><style>.cls-1{fill:#fff;stroke:#000;stroke-miterlimit:10;}</style></defs><title>concept-white</title><path class="cls-1" d="M456,0H440a8,8,0,0,0-8,8V64H40A40.05,40.05,0,0,0,0,104V456a40.05,40.05,0,0,0,40,40H56a8,8,0,0,0,8-8V432H456a40.05,40.05,0,0,0,40-40V40A40.05,40.05,0,0,0,456,0ZM48,480H40a24,24,0,0,1-24-24V136a39.81,39.81,0,0,0,24,8h8Zm408-64H64V136a8,8,0,0,0-8-8H40a24,24,0,0,1,0-48H432V360a8,8,0,0,0,8,8h16a24,24,0,0,1,0,48Zm24-56a39.74,39.74,0,0,0-24-8h-8V16h8a24,24,0,0,1,24,24Z" transform="translate(0.5 0.5)"></path><path class="cls-1" d="M408,192H312a8,8,0,0,0-8,8v8H280a8,8,0,0,0-8,8v32H192V232h8a8,8,0,0,0,8-8v-9.47c0-6.71,3.52-13.21,9.67-17.84A55.49,55.49,0,0,0,240,152a56,56,0,0,0-112,0,55.49,55.49,0,0,0,22.33,44.69c6.15,4.63,9.67,11.13,9.67,17.84V224a8,8,0,0,0,8,8h8v24a8,8,0,0,0,8,8h88V368H240V296a8,8,0,0,0-8-8H192v-8a8,8,0,0,0-8-8H88a8,8,0,0,0-8,8v32a8,8,0,0,0,8,8h96a8,8,0,0,0,8-8v-8h32v64H192v-8a8,8,0,0,0-8-8H88a8,8,0,0,0-8,8v32a8,8,0,0,0,8,8h96a8,8,0,0,0,8-8v-8h88a8,8,0,0,0,8-8V304h16v8a8,8,0,0,0,8,8h96a8,8,0,0,0,8-8V280a8,8,0,0,0-8-8H312a8,8,0,0,0-8,8v8H288V224h16v8a8,8,0,0,0,8,8h96a8,8,0,0,0,8-8V200A8,8,0,0,0,408,192Zm-248-8.09A39.64,39.64,0,0,1,144,152a40,40,0,0,1,80,0,39.64,39.64,0,0,1-15.95,31.91c-10.2,7.68-16.05,18.83-16.05,30.62V216H176v-1.47C176,202.74,170.15,191.59,160,183.91ZM176,304H96V288h80Zm0,80H96V368h80Zm144-96h80v16H320Zm80-64H320V208h80Z" transform="translate(0.5 0.5)"></path><path class="cls-1" d="M254.05,128.23l32-8,3.88,15.52-32,8Z" transform="translate(0.5 0.5)"></path><path class="cls-1" d="M254,175.77l3.88-15.53,32,8L286,183.77Z" transform="translate(0.5 0.5)"></path><path class="cls-1" d="M78.05,135.76l3.88-15.52,32,8-3.88,15.52Z" transform="translate(0.5 0.5)"></path><path class="cls-1" d="M78.05,168.23l32-8,3.87,15.52-32,8Z" transform="translate(0.5 0.5)"></path></svg>