<svg xmlns="http://www.w3.org/2000/svg" id="Warstwa_1" data-name="Warstwa 1" viewBox="0 0 513 513"><defs><style>.cls-1{fill:#fff;stroke:#000;stroke-miterlimit:10;}</style></defs><title>content-white</title><path class="cls-1" d="M473.6,512H38.4A38.45,38.45,0,0,1,0,473.6V38.4A38.45,38.45,0,0,1,38.4,0H473.6A38.45,38.45,0,0,1,512,38.4V473.6A38.45,38.45,0,0,1,473.6,512ZM38.4,17.07A21.36,21.36,0,0,0,17.07,38.4V473.6A21.36,21.36,0,0,0,38.4,494.93H473.6a21.35,21.35,0,0,0,21.33-21.33V38.4A21.36,21.36,0,0,0,473.6,17.07Z" transform="translate(0.5 0.5)"></path><path class="cls-1" d="M76.8,85.33H42.67a8.54,8.54,0,0,1-8.54-8.53V42.67a8.55,8.55,0,0,1,8.54-8.54H76.8a8.54,8.54,0,0,1,8.53,8.54V76.8A8.53,8.53,0,0,1,76.8,85.33ZM51.2,68.27H68.27V51.2H51.2Z" transform="translate(0.5 0.5)"></path><path class="cls-1" d="M145.07,85.33H110.93a8.53,8.53,0,0,1-8.53-8.53V42.67a8.54,8.54,0,0,1,8.53-8.54h34.14a8.54,8.54,0,0,1,8.53,8.54V76.8A8.53,8.53,0,0,1,145.07,85.33Zm-25.6-17.06h17.06V51.2H119.47Z" transform="translate(0.5 0.5)"></path><path class="cls-1" d="M213.33,85.33H179.2a8.53,8.53,0,0,1-8.53-8.53V42.67a8.54,8.54,0,0,1,8.53-8.54h34.13a8.55,8.55,0,0,1,8.54,8.54V76.8A8.54,8.54,0,0,1,213.33,85.33Zm-25.6-17.06H204.8V51.2H187.73Z" transform="translate(0.5 0.5)"></path><path class="cls-1" d="M503.47,119.47H8.53A8.54,8.54,0,0,1,0,110.93V38.4A38.45,38.45,0,0,1,38.4,0H473.6A38.45,38.45,0,0,1,512,38.4v72.53A8.54,8.54,0,0,1,503.47,119.47ZM17.07,102.4H494.93v-64A21.36,21.36,0,0,0,473.6,17.07H38.4A21.36,21.36,0,0,0,17.07,38.4Z" transform="translate(0.5 0.5)"></path><path class="cls-1" d="M230.4,324.27H42.67a8.55,8.55,0,0,1-8.54-8.54V145.07a8.55,8.55,0,0,1,8.54-8.54H230.4a8.54,8.54,0,0,1,8.53,8.54V315.73A8.54,8.54,0,0,1,230.4,324.27ZM51.2,307.2H221.87V153.6H51.2Z" transform="translate(0.5 0.5)"></path><path class="cls-1" d="M136.53,324.27a8.52,8.52,0,0,1-6-2.5L85.33,276.6,48.7,313.23a8.53,8.53,0,1,1-12.07-12.06L79.3,258.5a8.52,8.52,0,0,1,12.07,0l51.2,51.2a8.54,8.54,0,0,1-6,14.57Z" transform="translate(0.5 0.5)"></path><path class="cls-1" d="M102.4,238.93a34.13,34.13,0,1,1,34.13-34.13A34.17,34.17,0,0,1,102.4,238.93Zm0-51.2a17.07,17.07,0,1,0,17.07,17.07A17.09,17.09,0,0,0,102.4,187.73Z" transform="translate(0.5 0.5)"></path><path class="cls-1" d="M230.4,307.2a8.52,8.52,0,0,1-6-2.5l-53.44-53.44-47,51.22a8.54,8.54,0,0,1-12.58-11.54l53-57.78a8.54,8.54,0,0,1,6.1-2.76,8.29,8.29,0,0,1,6.22,2.5l59.73,59.73a8.54,8.54,0,0,1-6,14.57Z" transform="translate(0.5 0.5)"></path><path class="cls-1" d="M469.33,477.87H281.6a8.54,8.54,0,0,1-8.53-8.54V298.67a8.54,8.54,0,0,1,8.53-8.54H469.33a8.55,8.55,0,0,1,8.54,8.54V469.33A8.55,8.55,0,0,1,469.33,477.87ZM290.13,460.8H460.8V307.2H290.13Z" transform="translate(0.5 0.5)"></path><path class="cls-1" d="M375.47,477.87a8.54,8.54,0,0,1-6-2.5L324.27,430.2l-36.64,36.63a8.53,8.53,0,0,1-12.06-12.06l42.66-42.67a8.52,8.52,0,0,1,12.07,0l51.2,51.2a8.54,8.54,0,0,1-6,14.57Z" transform="translate(0.5 0.5)"></path><path class="cls-1" d="M341.33,392.53a34.13,34.13,0,1,1,34.14-34.13A34.17,34.17,0,0,1,341.33,392.53Zm0-51.2A17.07,17.07,0,1,0,358.4,358.4,17.08,17.08,0,0,0,341.33,341.33Z" transform="translate(0.5 0.5)"></path><path class="cls-1" d="M469.33,460.8a8.52,8.52,0,0,1-6-2.5l-53.44-53.44-47,51.22a8.54,8.54,0,0,1-12.58-11.54l53-57.78a8.54,8.54,0,0,1,6.1-2.76,8.43,8.43,0,0,1,6.22,2.5l59.74,59.73a8.54,8.54,0,0,1-6,14.57Z" transform="translate(0.5 0.5)"></path><path class="cls-1" d="M418.13,187.73H281.6a8.53,8.53,0,0,1,0-17.06H418.13a8.53,8.53,0,1,1,0,17.06Z" transform="translate(0.5 0.5)"></path><path class="cls-1" d="M469.33,187.73H452.27a8.53,8.53,0,1,1,0-17.06h17.06a8.53,8.53,0,1,1,0,17.06Z" transform="translate(0.5 0.5)"></path><path class="cls-1" d="M418.13,256H281.6a8.54,8.54,0,0,1,0-17.07H418.13a8.54,8.54,0,1,1,0,17.07Z" transform="translate(0.5 0.5)"></path><path class="cls-1" d="M469.33,256H452.27a8.54,8.54,0,1,1,0-17.07h17.06a8.54,8.54,0,1,1,0,17.07Z" transform="translate(0.5 0.5)"></path><path class="cls-1" d="M469.33,221.87H332.8a8.54,8.54,0,0,1,0-17.07H469.33a8.54,8.54,0,1,1,0,17.07Z" transform="translate(0.5 0.5)"></path><path class="cls-1" d="M298.67,221.87H281.6a8.54,8.54,0,0,1,0-17.07h17.07a8.54,8.54,0,0,1,0,17.07Z" transform="translate(0.5 0.5)"></path><path class="cls-1" d="M179.2,375.47H42.67a8.54,8.54,0,1,1,0-17.07H179.2a8.54,8.54,0,0,1,0,17.07Z" transform="translate(0.5 0.5)"></path><path class="cls-1" d="M230.4,375.47H213.33a8.54,8.54,0,0,1,0-17.07H230.4a8.54,8.54,0,0,1,0,17.07Z" transform="translate(0.5 0.5)"></path><path class="cls-1" d="M179.2,443.73H42.67a8.53,8.53,0,1,1,0-17.06H179.2a8.53,8.53,0,0,1,0,17.06Z" transform="translate(0.5 0.5)"></path><path class="cls-1" d="M230.4,443.73H213.33a8.53,8.53,0,1,1,0-17.06H230.4a8.53,8.53,0,1,1,0,17.06Z" transform="translate(0.5 0.5)"></path><path class="cls-1" d="M230.4,409.6H93.87a8.54,8.54,0,1,1,0-17.07H230.4a8.54,8.54,0,0,1,0,17.07Z" transform="translate(0.5 0.5)"></path><path class="cls-1" d="M59.73,409.6H42.67a8.54,8.54,0,1,1,0-17.07H59.73a8.54,8.54,0,1,1,0,17.07Z" transform="translate(0.5 0.5)"></path></svg>