<svg xmlns="http://www.w3.org/2000/svg" id="Warstwa_1" data-name="Warstwa 1" viewBox="0 0 481 481"><defs><style>.cls-1{fill:#fff;stroke:#000;stroke-miterlimit:10;}</style></defs><title>content-ecommerce-stepper-white</title><g id="Outline"><path class="cls-1" d="M56,208a24,24,0,0,1,24-24h88V168H80a40,40,0,0,0-40,40v48H56Z" transform="translate(-15.5 -15.5)"></path><path class="cls-1" d="M244,88a28,28,0,1,0,28,28A28,28,0,0,0,244,88Zm0,40a12,12,0,1,1,12-12A12,12,0,0,1,244,128Z" transform="translate(-15.5 -15.5)"></path><path class="cls-1" d="M488,16H318.65a48.23,48.23,0,0,0-41.16,23.31L267.47,56H208a24,24,0,0,0-24,24V224a24,24,0,0,0,24,24h48v32a8,8,0,0,0,13.12,6.15L314.9,248H424a24,24,0,0,0,24-24V110.45a85.42,85.42,0,0,0,44.53-23.67l1.13-1.12A8,8,0,0,0,496,80V24a8,8,0,0,0-8-8ZM432,224a8,8,0,0,1-8,8H312a8,8,0,0,0-5.12,1.85L272,262.92V240a8,8,0,0,0-8-8H208a8,8,0,0,1-8-8V212.53l71.77-43.06,67.79,45.19a8,8,0,0,0,8,.5l43.84-21.93L432,220.28Zm0-22.95-35.56-23.71a8,8,0,0,0-8-.5l-43.84,21.93-68.14-45.43a8,8,0,0,0-8.56-.2L200,193.87V80a8,8,0,0,1,8-8H332.69l-26.2,26.2a27.8,27.8,0,0,0,39.31,39.31L385,98.29A85.83,85.83,0,0,0,431.65,112H432ZM480,76.66a70.12,70.12,0,0,1-87.24,7.57l-4.32-2.89a8,8,0,0,0-10.1,1L334.49,126.2a11.8,11.8,0,0,1-17.78-15.42,11,11,0,0,1,1.09-1.26l39.86-39.86,16-16L362.34,42.34,348.69,56H286.13l5.08-8.46A32.13,32.13,0,0,1,318.65,32H480Z" transform="translate(-15.5 -15.5)"></path><path class="cls-1" d="M472,272H328a24,24,0,0,0-24,24v44.69l-29.66,29.65A8,8,0,0,0,280,384h24v8a24,24,0,0,0,24,24H472a24,24,0,0,0,24-24V296a24,24,0,0,0-24-24Zm8,120a8,8,0,0,1-8,8H328a8,8,0,0,1-8-8V376a8,8,0,0,0-8-8H299.31l18.35-18.34A8,8,0,0,0,320,344V296a8,8,0,0,1,8-8H472a8,8,0,0,1,8,8Z" transform="translate(-15.5 -15.5)"></path><path class="cls-1" d="M336,304h80v16H336Z" transform="translate(-15.5 -15.5)"></path><path class="cls-1" d="M432,304h32v16H432Z" transform="translate(-15.5 -15.5)"></path><path class="cls-1" d="M336,368H464v16H336Z" transform="translate(-15.5 -15.5)"></path><path class="cls-1" d="M336,336H464v16H336Z" transform="translate(-15.5 -15.5)"></path><path class="cls-1" d="M72,200H88v16H72Z" transform="translate(-15.5 -15.5)"></path><path class="cls-1" d="M104,200h16v16H104Z" transform="translate(-15.5 -15.5)"></path><path class="cls-1" d="M136,200h16v16H136Z" transform="translate(-15.5 -15.5)"></path><path class="cls-1" d="M72,232h96v16H72Z" transform="translate(-15.5 -15.5)"></path><path class="cls-1" d="M40,416H184a24,24,0,0,0,24-24V360h24a8,8,0,0,0,5.66-13.66L208,316.69V296a24,24,0,0,0-24-24H40a24,24,0,0,0-24,24v96a24,24,0,0,0,24,24ZM32,296a8,8,0,0,1,8-8H184a8,8,0,0,1,8,8v24a8,8,0,0,0,2.34,5.66L212.69,344H200a8,8,0,0,0-8,8v40a8,8,0,0,1-8,8H40a8,8,0,0,1-8-8Z" transform="translate(-15.5 -15.5)"></path><path class="cls-1" d="M48,304H64v16H48Z" transform="translate(-15.5 -15.5)"></path><path class="cls-1" d="M48,336H64v16H48Z" transform="translate(-15.5 -15.5)"></path><path class="cls-1" d="M48,368H64v16H48Z" transform="translate(-15.5 -15.5)"></path><path class="cls-1" d="M80,304h96v16H80Z" transform="translate(-15.5 -15.5)"></path><path class="cls-1" d="M80,336h96v16H80Z" transform="translate(-15.5 -15.5)"></path><path class="cls-1" d="M80,368h96v16H80Z" transform="translate(-15.5 -15.5)"></path><path class="cls-1" d="M424,432H283.31a35.08,35.08,0,0,0-25,10.34A19.17,19.17,0,0,1,244.69,448H203.31a19.17,19.17,0,0,1-13.65-5.66,35.08,35.08,0,0,0-25-10.34H24a8,8,0,0,0-8,8v24a32,32,0,0,0,32,32H400a32,32,0,0,0,32-32V440A8,8,0,0,0,424,432Zm-8,32a16,16,0,0,1-16,16H48a16,16,0,0,1-16-16V448H164.69a19.17,19.17,0,0,1,13.65,5.66,35.08,35.08,0,0,0,25,10.34h41.38a35.08,35.08,0,0,0,25-10.34A19.17,19.17,0,0,1,283.31,448H416Z" transform="translate(-15.5 -15.5)"></path></g></svg>