<svg xmlns="http://www.w3.org/2000/svg" id="Capa_1" data-name="Capa 1" viewBox="0 0 513 432.84"><defs><style>.cls-1{fill:#fff;stroke:#000;stroke-miterlimit:10;}</style></defs><title>data-white</title><path class="cls-1" d="M480.45,40.08H31.55A31.58,31.58,0,0,0,0,71.63V376.24a31.58,31.58,0,0,0,31.55,31.55H183.38l-6.15,49.13H151.79a7.5,7.5,0,0,0,0,15H360.21a7.5,7.5,0,0,0,0-15H334.77l-6.14-49.13H480.45A31.58,31.58,0,0,0,512,376.24V71.63A31.58,31.58,0,0,0,480.45,40.08ZM192.35,456.92l6.14-49.13H226.1l2.7,10.83a28,28,0,0,0,54.4,0l2.71-10.83h27.6l6.14,49.13Zm49.21-49.13h28.88l-1.8,7.19a13,13,0,0,1-25.29,0ZM497,376.24h0a16.56,16.56,0,0,1-16.55,16.55H31.55A16.56,16.56,0,0,1,15,376.24V71.63A16.56,16.56,0,0,1,31.55,55.08h448.9A16.56,16.56,0,0,1,497,71.63V376.24Z" transform="translate(0.5 -39.58)"></path><path class="cls-1" d="M424.34,72.15H39.56a7.5,7.5,0,0,0-7.5,7.5V368.23a7.5,7.5,0,0,0,7.5,7.5h16a7.5,7.5,0,1,0,0-15H47.06V87.15H424.34a7.5,7.5,0,0,0,0-15Z" transform="translate(0.5 -39.58)"></path><path class="cls-1" d="M472.44,72.15h-16a7.5,7.5,0,0,0,0,15h8.54V360.73H87.66a7.5,7.5,0,1,0,0,15H472.43a7.5,7.5,0,0,0,7.5-7.5V79.65A7.48,7.48,0,0,0,472.44,72.15Z" transform="translate(0.5 -39.58)"></path><path class="cls-1" d="M169.42,160.62,149.28,190.9c-3.24,4.87-3.24,12.77,0,17.64,1.62,2.43,3.74,3.65,5.87,3.65s4.24-1.22,5.86-3.65l26-39.11c3.24-4.87,3.24-12.77,0-17.63l-26-39.1c-3.24-4.87-8.49-4.87-11.73,0s-3.24,12.77,0,17.63Z" transform="translate(0.5 -39.58)"></path><path class="cls-1" d="M111.69,211.33a6,6,0,0,0,3,.86c3.32,0,6.44-3,7.73-7.91l20.43-78.2c1.68-6.41-.42-13.65-4.69-16.17s-9.08.63-10.75,7L107,195.16C105.33,201.57,107.43,208.81,111.69,211.33Z" transform="translate(0.5 -39.58)"></path><path class="cls-1" d="M71.66,285.36h55.88c4.58,0,8.3-5.59,8.3-12.48s-3.72-12.47-8.3-12.47H71.66c-4.59,0-8.3,5.59-8.3,12.47S67.07,285.36,71.66,285.36Z" transform="translate(0.5 -39.58)"></path><path class="cls-1" d="M256.25,260.41H158c-4.58,0-8.29,5.59-8.29,12.47s3.71,12.48,8.29,12.48h98.25c4.59,0,8.3-5.59,8.3-12.48S260.84,260.41,256.25,260.41Z" transform="translate(0.5 -39.58)"></path><path class="cls-1" d="M225.9,313c-4.58,0-8.29,5.59-8.29,12.47S221.32,338,225.9,338h14.5c4.58,0,8.3-5.58,8.3-12.48S245,313,240.4,313Z" transform="translate(0.5 -39.58)"></path><path class="cls-1" d="M204.07,325.48c0-6.88-3.71-12.47-8.29-12.47H124.57c-4.58,0-8.29,5.59-8.29,12.47S120,338,124.57,338h71.21C200.36,338,204.07,332.38,204.07,325.48Z" transform="translate(0.5 -39.58)"></path><path class="cls-1" d="M258.41,325.48c0,6.9,3.71,12.48,8.29,12.48h27.16c4.58,0,8.3-5.58,8.3-12.48S298.44,313,293.86,313H266.7C262.12,313,258.41,318.6,258.41,325.48Z" transform="translate(0.5 -39.58)"></path><path class="cls-1" d="M213.23,170.62h28.64c4.59,0,8.3-5.58,8.3-12.47s-3.71-12.47-8.3-12.47H213.23c-4.58,0-8.3,5.58-8.3,12.47S208.65,170.62,213.23,170.62Z" transform="translate(0.5 -39.58)"></path><path class="cls-1" d="M274,170.62H448.71c4.58,0,8.29-5.58,8.29-12.47s-3.71-12.47-8.29-12.47H274c-4.58,0-8.3,5.58-8.3,12.47S269.37,170.62,274,170.62Z" transform="translate(0.5 -39.58)"></path><path class="cls-1" d="M213.23,225.49h59.62c4.57,0,8.29-5.58,8.29-12.47s-3.72-12.47-8.29-12.47H213.23c-4.58,0-8.3,5.58-8.3,12.47S208.65,225.49,213.23,225.49Z" transform="translate(0.5 -39.58)"></path><path class="cls-1" d="M85.44,206.49c1.61,2.43,3.74,3.65,5.86,3.65s4.25-1.21,5.87-3.65c3.24-4.87,3.24-12.77,0-17.64L77,158.57l20.14-30.28c3.24-4.88,3.24-12.77,0-17.64s-8.49-4.87-11.73,0l-26,39.1a17.22,17.22,0,0,0,0,17.64Z" transform="translate(0.5 -39.58)"></path><path class="cls-1" d="M410.45,260.41H312.2c-4.58,0-8.29,5.59-8.29,12.47s3.71,12.48,8.29,12.48h98.25c4.58,0,8.3-5.59,8.3-12.48S415,260.41,410.45,260.41Z" transform="translate(0.5 -39.58)"></path></svg>