<svg xmlns="http://www.w3.org/2000/svg" id="Capa_1" data-name="Capa 1" viewBox="0 0 513 480.94"><defs><style>.cls-1{fill:#fff;stroke:#000;stroke-miterlimit:10;}</style></defs><title>launch-white</title><path class="cls-1" d="M504.5,448.9H471.92V175.84a31.58,31.58,0,0,0-31.55-31.55H344.18a7.5,7.5,0,0,0,0,15h96.19a16.57,16.57,0,0,1,16.55,16.55V448.9H431.25a62.49,62.49,0,0,0,.59-8.53,63.51,63.51,0,0,0-77.68-62,47.43,47.43,0,0,0-42.05-25.65,46.36,46.36,0,0,0-16.79,3.12,39.56,39.56,0,0,0-78.64,0,46.32,46.32,0,0,0-16.79-3.12,47.43,47.43,0,0,0-42,25.65,63.51,63.51,0,0,0-77.68,62,64.12,64.12,0,0,0,.59,8.53H55.08V175.84a16.56,16.56,0,0,1,16.55-16.55h96.19a7.5,7.5,0,0,0,0-15H71.63a31.58,31.58,0,0,0-31.55,31.55V448.9H7.5A7.5,7.5,0,0,0,0,456.4v16A23.56,23.56,0,0,0,23.53,496H488.47A23.56,23.56,0,0,0,512,472.44v-16A7.5,7.5,0,0,0,504.5,448.9ZM497,472.44a8.54,8.54,0,0,1-8.53,8.53H23.53A8.54,8.54,0,0,1,15,472.44V463.9h96.71a7.5,7.5,0,1,0,0-15H95.93a48,48,0,0,1-.77-8.53,48.51,48.51,0,0,1,64.5-45.9,7.49,7.49,0,0,0,9.56-4.66,32.49,32.49,0,0,1,30.67-22.1,32.05,32.05,0,0,1,20.82,7.76,7.5,7.5,0,0,0,12-8,24.34,24.34,0,0,1-1.25-7.28,24.56,24.56,0,1,1,49.12,0,24.34,24.34,0,0,1-1.25,7.28,7.5,7.5,0,0,0,12,8,32.05,32.05,0,0,1,20.82-7.76,32.49,32.49,0,0,1,30.67,22.1,7.49,7.49,0,0,0,9.56,4.66,48.51,48.51,0,0,1,64.5,45.9,48,48,0,0,1-.77,8.53H143.78a7.5,7.5,0,1,0,0,15H497Z" transform="translate(0.5 -15.53)"></path><path class="cls-1" d="M159.62,236.49a31.58,31.58,0,0,0-7.31,20.2v23.36a7.49,7.49,0,0,0,7.5,7.5,7.42,7.42,0,0,0,3.68-1l53.41-30.14q3.06,5.58,6.48,11l-6.72,26.85a7.5,7.5,0,0,0,7.28,9.32h64.13a7.49,7.49,0,0,0,7.27-9.32l-6.71-26.85q3.42-5.39,6.47-11l53.41,30.14a7.5,7.5,0,0,0,11.19-6.53V256.69a31.61,31.61,0,0,0-7.32-20.2l-35.6-42.71a204.12,204.12,0,0,0,2.84-34,201.35,201.35,0,0,0-15.74-78.58,193,193,0,0,0-42.62-63,7.48,7.48,0,0,0-10.52,0,193.16,193.16,0,0,0-42.61,63,201.35,201.35,0,0,0-15.74,78.58,204.49,204.49,0,0,0,2.83,33.92Zm7.69,30.72V256.69a16.59,16.59,0,0,1,3.83-10.59l28.11-33.74A198.53,198.53,0,0,0,210.19,243Zm66.23,21.37,4.27-17.06h36.38l4.27,17.06ZM340.86,246.1a16.59,16.59,0,0,1,3.83,10.59v10.52L301.81,243a198.53,198.53,0,0,0,10.94-30.65ZM256,34.29a179.1,179.1,0,0,1,30.88,45.87H225.12A179.1,179.1,0,0,1,256,34.29ZM218.87,95.16h74.26a188,188,0,0,1,11.48,64.65,185.5,185.5,0,0,1-26.87,96.71H234.26a185.41,185.41,0,0,1-26.87-96.71,187.93,187.93,0,0,1,11.48-64.65Z" transform="translate(0.5 -15.53)"></path><path class="cls-1" d="M287.55,151.79A31.55,31.55,0,1,0,256,183.34,31.58,31.58,0,0,0,287.55,151.79Zm-48.1,0A16.55,16.55,0,1,1,256,168.34,16.57,16.57,0,0,1,239.45,151.79Z" transform="translate(0.5 -15.53)"></path></svg>