<svg xmlns="http://www.w3.org/2000/svg" id="Warstwa_1" data-name="Warstwa 1" viewBox="0 0 465.5 481"><defs><style>.cls-1{fill:#fff;stroke:#000;stroke-miterlimit:10;}</style></defs><title>online-marketing-white</title><g id="Advertising-Marketing-Business-Smartphone-Online"><path class="cls-1" d="M432,16H240a56.07,56.07,0,0,0-56,56V265.6l-15-26a24,24,0,0,0-43.77,18.67L75.74,321.16,35.5,344.36a24,24,0,0,0-8.8,32.8l16,27.71a24,24,0,0,0,32.78,8.82l0,0,28,48.5A24,24,0,0,0,136.28,471h0l13.86-8A24,24,0,0,0,159,430.19v0l-24.49-42.4,49.6-7.14V440a56.07,56.07,0,0,0,56,56H432a56.07,56.07,0,0,0,56-56V72a56.07,56.07,0,0,0-56-56ZM205,301.93l-8-13.86a8,8,0,0,1,8,13.85Zm-60.8-57.27a8,8,0,0,1,10.93,2.92l64,110.85a8,8,0,0,1-13.61,8.42l-.24-.42-64-110.85a8,8,0,0,1,2.93-10.92Zm-10.87,29.15,52.18,90.4L117.28,374,90.7,328Zm-55.2,64.41,24,41.6-13.86,8-24-41.6Zm-21.6,58.64-16-27.71a8,8,0,0,1,2.93-10.93l6.92-4,24,41.6-6.92,4a8,8,0,0,1-10.88-3ZM145,438.14a8,8,0,0,1-2.92,10.93l-13.86,8a8,8,0,0,1-10.93-2.93l-28-48.49,26.4-15.2,1.64-.23ZM472,440a40.05,40.05,0,0,1-40,40H240a40.05,40.05,0,0,1-40-40V383a24.06,24.06,0,0,0,12.26,3.4,23.78,23.78,0,0,0,12-3.2,24,24,0,0,0,8.8-32.8l-20-34.64a23.92,23.92,0,0,0-13-44.64V72a40.05,40.05,0,0,1,40-40H432a40.05,40.05,0,0,1,40,40Z" transform="translate(-23 -15.5)"></path><path class="cls-1" d="M264,48h16V64H264Z" transform="translate(-23 -15.5)"></path><path class="cls-1" d="M232,48h16V64H232Z" transform="translate(-23 -15.5)"></path><path class="cls-1" d="M296,48h80V64H296Z" transform="translate(-23 -15.5)"></path><path class="cls-1" d="M352,416H320a24,24,0,0,0,0,48h32a24,24,0,0,0,0-48Zm0,32H320a8,8,0,0,1,0-16h32a8,8,0,0,1,0,16Z" transform="translate(-23 -15.5)"></path><path class="cls-1" d="M328,192h16a8,8,0,0,1,8,8h16a24,24,0,0,0-24-24v-8H328v8a24,24,0,0,0,0,48h16a8,8,0,0,1,0,16H328a8,8,0,0,1-8-8H304a24,24,0,0,0,24,24h0v8h16v-8a24,24,0,0,0,0-48H328a8,8,0,0,1,0-16Z" transform="translate(-23 -15.5)"></path><path class="cls-1" d="M336,136a80,80,0,1,0,80,80A80,80,0,0,0,336,136Zm0,144a64,64,0,1,1,64-64A64,64,0,0,1,336,280Z" transform="translate(-23 -15.5)"></path><path class="cls-1" d="M231.63,268.07l27.71-16,8,13.86-27.71,16Z" transform="translate(-23 -15.5)"></path><path class="cls-1" d="M205,249.25l8.79-32.79,15.46,4.15-8.8,32.79Z" transform="translate(-23 -15.5)"></path><path class="cls-1" d="M242.71,314.48,246.85,299l32.79,8.79-4.15,15.46Z" transform="translate(-23 -15.5)"></path></g></svg>