<svg xmlns="http://www.w3.org/2000/svg" id="Capa_1" data-name="Capa 1" viewBox="0 0 417.41 513"><defs><style>.cls-1{fill:#fff;stroke:#000;stroke-miterlimit:10;}</style></defs><title>sales-white</title><path class="cls-1" d="M464.19,252.18a25.36,25.36,0,0,0-50.71,0v4.27A100.13,100.13,0,0,1,398,269.17V140.61a15.91,15.91,0,0,0-15.9-15.9H330.12V99.84a99.84,99.84,0,0,0-199.68,0v24.87H78.5a15.92,15.92,0,0,0-15.9,15.9V186a7.5,7.5,0,0,0,15,0v-45.4a.9.9,0,0,1,.9-.9h51.94v20.18H126a7.5,7.5,0,1,0,0,15h23.84a7.5,7.5,0,0,0,0-15h-4.42V139.71H315.12v20.18H310.7a7.5,7.5,0,0,0,0,15h23.84a7.5,7.5,0,0,0,0-15h-4.43V139.71h51.94a.9.9,0,0,1,.9.9V277.49C361.38,287.36,338.17,290,319.71,290H235.53a22.35,22.35,0,0,0-21.79,17.26H203.27a38.75,38.75,0,1,0,0,77.5H214.7a22.3,22.3,0,0,0,19.8,14.13v42.47H77.6V221.07a7.5,7.5,0,0,0-15,0V447.56L48.87,486.65a19,19,0,0,0,18,25.35h326.9a19,19,0,0,0,18-25.35L398,447.56V419.71a99.69,99.69,0,0,1,15.55,12.71v4.27a25.36,25.36,0,1,0,50.71,0ZM145.44,124.71V99.84a84.84,84.84,0,0,1,169.68,0v24.87Zm130.3,322.61h0l-2.5,11.24a3.94,3.94,0,0,1-3.87,3.1H253.46a4,4,0,0,1-4-4V398.92h37Zm-72.46-77.57h0a23.76,23.76,0,0,1,0-47.51h9.86v47.51Zm24.88,7.33c0-2.37,0-41.1,0-64.68a7.42,7.42,0,0,1,7.42-7.42h64.74v78.94H235.54a7.39,7.39,0,0,1-7.38-6.84ZM393.73,497H66.83A4,4,0,0,1,63,491.62l12.4-35.28H234.5v1.37a19,19,0,0,0,19,19h15.91a18.84,18.84,0,0,0,18.5-14.83l1.23-5.5h96l12.4,35.28a4,4,0,0,1-3.81,5.38ZM383,441.34H292.44l9.46-42.42h17.83c18.46,0,41.65,2.61,63.22,12.47Zm55.9,5.7a10.35,10.35,0,0,1-10.36-10.35V332.26a7.5,7.5,0,1,0-15,0v80.16c-24-18.7-56-28.5-93.75-28.5h-4.45V305h4.43c37.75,0,69.79-9.81,93.77-28.53V297.2a7.5,7.5,0,1,0,15,0v-45a10.36,10.36,0,0,1,20.71,0l0,184.51A10.37,10.37,0,0,1,438.85,447Z" transform="translate(-47.29 0.5)"></path></svg>