<svg xmlns="http://www.w3.org/2000/svg" id="Capa_1" data-name="Capa 1" viewBox="0 0 513 513"><defs><style>.cls-1{fill:#fff;stroke:#000;stroke-miterlimit:10;}</style></defs><title>support-white</title><path class="cls-1" d="M181.72,366.81a10.3,10.3,0,0,0-2.21-.36,63.86,63.86,0,0,0,17.7-44.17V269.67a9.36,9.36,0,0,0-.11-1.41c.07-1,.11-1.91.11-2.88V232.1a10,10,0,0,0-10-10H120.14a51.28,51.28,0,0,0-51.22,51.22v49a63.86,63.86,0,0,0,17.7,44.17,10.3,10.3,0,0,0-2.21.36A93,93,0,0,0,0,459.28V502a10,10,0,0,0,10,10H256.13a10,10,0,0,0,10-10V459.28A93,93,0,0,0,181.72,366.81ZM88.92,286V273.32a31.25,31.25,0,0,1,31.22-31.22h57.07v23.28A21.27,21.27,0,0,1,156,286.64h-67Zm0,20.64h67a41,41,0,0,0,21.26-5.91v21.55a44.15,44.15,0,1,1-88.29,0Zm65.91,79.79-21.77,21.76L111.3,386.43ZM246.13,492H20V472H61.5a10,10,0,0,0,0-20H20.36a73,73,0,0,1,63.26-65L126,429.4a10,10,0,0,0,14.15,0L182.51,387a73,73,0,0,1,63.62,72.25Z" transform="translate(0.5 0.5)"></path><path class="cls-1" d="M427.6,144.72a9.9,9.9,0,0,0-2.21-.36,63.94,63.94,0,0,0,17.69-44.18V47.57a9.36,9.36,0,0,0-.11-1.41c.07-.95.11-1.91.11-2.87V10a10,10,0,0,0-10-10H366a51.28,51.28,0,0,0-51.22,51.22v49a63.86,63.86,0,0,0,17.7,44.17,9.73,9.73,0,0,0-2.21.37,93,93,0,0,0-84.41,92.46V279.9a10,10,0,0,0,10,10h80.46a10,10,0,1,0,0-20H265.87V237.18a73,73,0,0,1,63.62-72.25l42.37,42.38a10,10,0,0,0,14.15,0l42.37-42.38A73,73,0,0,1,492,237.18V269.9H418.33a10,10,0,0,0,0,20H502a10,10,0,0,0,10-10V237.18A93,93,0,0,0,427.6,144.72ZM378.94,186.1l-21.77-21.77H400.7Zm44.14-85.92a44.15,44.15,0,1,1-88.29,0V84.55h67a41,41,0,0,0,21.26-5.92Zm0-56.89a21.28,21.28,0,0,1-21.26,21.26h-67V51.22A31.26,31.26,0,0,1,366,20h57.07V43.29Z" transform="translate(0.5 0.5)"></path><path class="cls-1" d="M386,272.83a10,10,0,1,0,2.93,7.07A10.08,10.08,0,0,0,386,272.83Z" transform="translate(0.5 0.5)"></path><path class="cls-1" d="M267.4,139.93,225.58,98.11V50a50.06,50.06,0,0,0-50-50H50A50.06,50.06,0,0,0,0,50v88a50.06,50.06,0,0,0,50,50H175.58a49.72,49.72,0,0,0,46.27-31h38.48a10,10,0,0,0,7.07-17.07ZM214.55,137a10,10,0,0,0-9.74,7.76A29.85,29.85,0,0,1,175.58,168H50a30,30,0,0,1-30-30V50A30,30,0,0,1,50,20H175.58a30,30,0,0,1,30,30v52.25a10,10,0,0,0,2.93,7.07L236.19,137Z" transform="translate(0.5 0.5)"></path><path class="cls-1" d="M462,324H336.42a49.72,49.72,0,0,0-46.27,31H251.67a10,10,0,0,0-7.07,17.07l41.82,41.82V462a50.06,50.06,0,0,0,50,50H462a50.06,50.06,0,0,0,50-50V374A50.06,50.06,0,0,0,462,324Zm30,138a30,30,0,0,1-30,30H336.42a30,30,0,0,1-30-30V409.75a10,10,0,0,0-2.93-7.07L275.81,375h21.64a10,10,0,0,0,9.74-7.76A29.85,29.85,0,0,1,336.42,344H462a30,30,0,0,1,30,30Z" transform="translate(0.5 0.5)"></path><path class="cls-1" d="M444.16,391.39a10,10,0,0,0-14.14,0L403.43,418l-12.36-12.37a10,10,0,0,0-14.14,14.15l19.43,19.43a10,10,0,0,0,14.14,0l33.66-33.65A10,10,0,0,0,444.16,391.39Z" transform="translate(0.5 0.5)"></path><path class="cls-1" d="M158.25,66.27A34.75,34.75,0,0,0,126.1,34.12,34.38,34.38,0,0,0,100,43.36,34.78,34.78,0,0,0,89,68.7a10,10,0,1,0,20,0,14.67,14.67,0,0,1,15.73-14.64A14.67,14.67,0,0,1,126.89,83a16.8,16.8,0,0,0-13.22,16.47v5.33a10,10,0,1,0,20,0v-2.91A34.48,34.48,0,0,0,158.25,66.27Z" transform="translate(0.5 0.5)"></path><path class="cls-1" d="M130.74,136a10,10,0,1,0,2.93,7.07A10.08,10.08,0,0,0,130.74,136Z" transform="translate(0.5 0.5)"></path><path class="cls-1" d="M108.57,454.93A10,10,0,1,0,111.5,462,10.08,10.08,0,0,0,108.57,454.93Z" transform="translate(0.5 0.5)"></path></svg>