<svg xmlns="http://www.w3.org/2000/svg" id="Warstwa_1" data-name="Warstwa 1" viewBox="0 0 938.5 938.5"><defs><style>.cls-1{fill:#fff;stroke:#000;stroke-miterlimit:10;}</style></defs><title>theme-white</title><g id="surface1"><path class="cls-1" d="M93.75,62.5V218.75H125V62.5a31.25,31.25,0,0,1,31.25-31.25h625A31.25,31.25,0,0,1,812.5,62.5h31.25A62.5,62.5,0,0,0,781.25,0h-625A62.5,62.5,0,0,0,93.75,62.5Z" transform="translate(0.5 0.5)"></path><path class="cls-1" d="M62.5,937.5H781.25a62.5,62.5,0,0,0,62.5-62.5V812.5H812.5V875a31.25,31.25,0,0,1-62.5,0V828.13a15.62,15.62,0,0,0-15.62-15.63H125V500H93.75V812.5H15.63A15.62,15.62,0,0,0,0,828.13V875A62.5,62.5,0,0,0,62.5,937.5ZM31.25,843.75h687.5V875a62.11,62.11,0,0,0,8.39,31.25H62.5A31.25,31.25,0,0,1,31.25,875Z" transform="translate(0.5 0.5)"></path><path class="cls-1" d="M15.63,468.75h312.5a15.62,15.62,0,0,0,15.62-15.62V265.63A15.62,15.62,0,0,0,328.13,250H15.63A15.62,15.62,0,0,0,0,265.63v187.5A15.62,15.62,0,0,0,15.63,468.75Zm15.62-187.5H312.5V437.5H31.25Z" transform="translate(0.5 0.5)"></path><path class="cls-1" d="M98.33,317.08,67.08,348.33a15.62,15.62,0,0,0,0,22.09l31.25,31.25,22.09-22.09-20.2-20.2,20.2-20.21Z" transform="translate(0.5 0.5)"></path><path class="cls-1" d="M245.42,317.08l-22.09,22.09,20.2,20.21-20.2,20.2,22.09,22.09,31.25-31.25a15.62,15.62,0,0,0,0-22.09Z" transform="translate(0.5 0.5)"></path><path class="cls-1" d="M141.41,401.31l31.27-93.76,29.66,9.89-31.29,93.75Z" transform="translate(0.5 0.5)"></path><path class="cls-1" d="M921.88,93.75H390.63A15.62,15.62,0,0,0,375,109.38v312.5a15.62,15.62,0,0,0,15.63,15.62H921.88a15.62,15.62,0,0,0,15.62-15.62V109.38A15.62,15.62,0,0,0,921.88,93.75Zm-15.63,312.5h-500v-38L546.56,284l136.8,88.47a15.59,15.59,0,0,0,15.62.75L812.1,314.66l94.15,53.78Zm0-73.8-85.94-49.14a15.63,15.63,0,0,0-14.94-.31l-112.6,58.33L555.42,252.5a15.64,15.64,0,0,0-16.53-.27L406.25,331.78V125h500Z" transform="translate(0.5 0.5)"></path><path class="cls-1" d="M742.19,265.63a54.69,54.69,0,1,0-54.69-54.69A54.7,54.7,0,0,0,742.19,265.63Zm0-78.13a23.44,23.44,0,1,1-23.44,23.44A23.44,23.44,0,0,1,742.19,187.5Z" transform="translate(0.5 0.5)"></path><path class="cls-1" d="M156.25,515.63v187.5a15.62,15.62,0,0,0,15.63,15.62H562.5a15.62,15.62,0,0,0,15.63-15.62V515.63A15.63,15.63,0,0,0,562.5,500H171.88A15.62,15.62,0,0,0,156.25,515.63Zm31.25,15.62H546.88V687.5H187.5Z" transform="translate(0.5 0.5)"></path><path class="cls-1" d="M218.75,562.5h62.5v31.25h-62.5Z" transform="translate(0.5 0.5)"></path><path class="cls-1" d="M312.5,562.5H453.13v31.25H312.5Z" transform="translate(0.5 0.5)"></path><path class="cls-1" d="M484.38,562.5h31.25v31.25H484.38Z" transform="translate(0.5 0.5)"></path><path class="cls-1" d="M218.75,625h187.5v31.25H218.75Z" transform="translate(0.5 0.5)"></path><path class="cls-1" d="M437.5,625h78.13v31.25H437.5Z" transform="translate(0.5 0.5)"></path><path class="cls-1" d="M156.25,62.5H187.5V93.75H156.25Z" transform="translate(0.5 0.5)"></path><path class="cls-1" d="M218.75,62.5H250V93.75H218.75Z" transform="translate(0.5 0.5)"></path><path class="cls-1" d="M281.25,62.5H312.5V93.75H281.25Z" transform="translate(0.5 0.5)"></path><path class="cls-1" d="M156.25,125h187.5v31.25H156.25Z" transform="translate(0.5 0.5)"></path><path class="cls-1" d="M921.88,562.5H625a15.62,15.62,0,0,0-15.62,15.63v187.5A15.62,15.62,0,0,0,625,781.25H921.88a15.62,15.62,0,0,0,15.62-15.62V578.13A15.62,15.62,0,0,0,921.88,562.5ZM906.25,750H640.63V593.75H906.25Z" transform="translate(0.5 0.5)"></path><path class="cls-1" d="M671.88,625h31.25v31.25H671.88Z" transform="translate(0.5 0.5)"></path><path class="cls-1" d="M671.88,687.5h31.25v31.25H671.88Z" transform="translate(0.5 0.5)"></path><path class="cls-1" d="M734.38,625H875v31.25H734.38Z" transform="translate(0.5 0.5)"></path><path class="cls-1" d="M734.38,687.5H875v31.25H734.38Z" transform="translate(0.5 0.5)"></path><path class="cls-1" d="M812.5,468.75h31.25v62.5H812.5Z" transform="translate(0.5 0.5)"></path></g></svg>