<svg xmlns="http://www.w3.org/2000/svg" id="Capa_1" data-name="Capa 1" viewBox="0 0 513 432.84"><defs><style>.cls-1{fill:#fff;stroke:#000;stroke-miterlimit:10;}</style></defs><title>ux-monitor-white</title><path class="cls-1" d="M481,.5H32.05A31.58,31.58,0,0,0,.5,32.05V336.66a31.58,31.58,0,0,0,31.55,31.55H183.88l-6.15,49.13H152.29a7.5,7.5,0,0,0,0,15H360.71a7.5,7.5,0,0,0,0-15H335.27l-6.14-49.13H481a31.58,31.58,0,0,0,31.55-31.55V32.05A31.58,31.58,0,0,0,481,.5ZM192.85,417.34,199,368.21H226.6L229.3,379a28,28,0,0,0,54.4,0l2.71-10.83H314l6.14,49.13Zm49.21-49.13h28.88l-1.8,7.19a13,13,0,0,1-25.29,0ZM497.5,336.66h0A16.56,16.56,0,0,1,481,353.21H32.05A16.56,16.56,0,0,1,15.5,336.66V32.05A16.56,16.56,0,0,1,32.05,15.5H481A16.56,16.56,0,0,1,497.5,32.05Z"></path><path class="cls-1" d="M424.84,32.57H40.06a7.5,7.5,0,0,0-7.5,7.5V328.65a7.5,7.5,0,0,0,7.5,7.5h16a7.5,7.5,0,0,0,0-15h-8.5V47.57H424.84a7.5,7.5,0,0,0,0-15Z"></path><path class="cls-1" d="M472.94,32.57h-16a7.5,7.5,0,0,0,0,15h8.54V321.15H88.16a7.5,7.5,0,1,0,0,15H472.93a7.5,7.5,0,0,0,7.5-7.5V40.07a7.48,7.48,0,0,0-7.46-7.5Z"></path><path class="cls-1" d="M139.15,219.17A56.86,56.86,0,0,0,171,228.66,59.17,59.17,0,0,0,198.65,222c21-10.91,32.52-29.16,32.52-51.36V99.85c0-14.24-11.21-25.82-25-25.82s-25,11.58-25,25.82v70.8c0,1.23,0,2.62-5,5.24A10.9,10.9,0,0,1,171,177a8.42,8.42,0,0,1-5-1.37c-4.1-2.7-4.1-3.54-4.1-4.93V99.85c0-14.24-11.2-25.82-25-25.82s-25,11.58-25,25.82v70.87c0,20,9.39,36.72,27.16,48.45ZM127,99.85a10,10,0,1,1,20,0v70.87c0,7.61,3.2,12.83,11,18a23.22,23.22,0,0,0,13,3.8,25.23,25.23,0,0,0,11.91-2.78c11.91-6.2,13.29-13.87,13.29-19.09V99.85a10,10,0,1,1,20,0v70.8c0,16.28-8.39,29.25-24.27,37.51a44.77,44.77,0,0,1-21,5,42.46,42.46,0,0,1-23.72-7c-13.62-9-20.24-20.57-20.24-35.39V99.85Z"></path><path class="cls-1" d="M374.6,188,345,147.64l24.05-33a26.29,26.29,0,0,0,4.79-19.14,25.82,25.82,0,0,0-9.69-17,24.23,24.23,0,0,0-18.51-5,24.71,24.71,0,0,0-16.48,10L313.62,104.9,297.93,83.52a24.47,24.47,0,0,0-35-5,26.44,26.44,0,0,0-4.8,36.18l24.23,33-28,38.45a26.32,26.32,0,0,0-4.8,19.13,25.83,25.83,0,0,0,9.7,17,24.22,24.22,0,0,0,15,5.21,24.51,24.51,0,0,0,19.95-10.28l19.55-26.79,21.05,28.68a24.55,24.55,0,0,0,19.91,10.21,24.22,24.22,0,0,0,15.09-5.25,25.84,25.84,0,0,0,9.65-17.06A26.29,26.29,0,0,0,374.6,188Zm-13.86,23.83a9.71,9.71,0,0,1-6,2.1,9.83,9.83,0,0,1-8-4.08L319.7,173a7.4,7.4,0,0,0-6-3.07h0a7.45,7.45,0,0,0-6,3.09l-25.51,35a9.77,9.77,0,0,1-14,2,10.3,10.3,0,0,1-3.87-6.8,10.54,10.54,0,0,1,1.91-7.65l31.47-43.13a8,8,0,0,0,0-9.36l-27.66-37.67A10.56,10.56,0,0,1,272,90.91a9.77,9.77,0,0,1,14,2l21.69,29.54a7.4,7.4,0,0,0,6,3.07h0a7.45,7.45,0,0,0,6-3.09l21.51-29.49a9.86,9.86,0,0,1,6.58-4,9.7,9.7,0,0,1,7.4,2A10.32,10.32,0,0,1,359,97.7a10.52,10.52,0,0,1-1.91,7.64L329.61,143a8,8,0,0,0,0,9.36l33,45a10.57,10.57,0,0,1-1.91,14.46Z"></path><path class="cls-1" d="M372.18,253H119.48a7.75,7.75,0,0,0,0,15.5h252.7a7.75,7.75,0,0,0,0-15.5Z"></path><path class="cls-1" d="M372.18,284.5H119.48a7.75,7.75,0,0,0,0,15.5h252.7a7.75,7.75,0,0,0,0-15.5Z"></path></svg>