<svg xmlns="http://www.w3.org/2000/svg" id="Warstwa_1" data-name="Warstwa 1" viewBox="0 0 451.59 513"><defs><style>.cls-1{fill:#fff;stroke:#000;stroke-miterlimit:10;}</style></defs><title>video-white</title><path class="cls-1" d="M471.59,206.68H130.42l327.7-94.93a10,10,0,0,0,6.82-12.39l-17.15-59.2a55.68,55.68,0,0,0-68.94-38L71.18,91.32a55.77,55.77,0,0,0-38,68.94L50,218.09V456.35A55.71,55.71,0,0,0,105.61,512H225.77a10,10,0,0,0,0-20H105.61A35.69,35.69,0,0,1,70,456.35V320.26H461.59V456.35A35.69,35.69,0,0,1,425.94,492H305.77a10,10,0,0,0,0,20H425.94a55.71,55.71,0,0,0,55.65-55.65V216.68A10,10,0,0,0,471.59,206.68ZM295.26,300.26l42.49-73.58H393l-42.49,73.58Zm-78.36,0,42.49-73.58h55.26l-42.49,73.58Zm-78.36,0L181,226.68h55.26L193.8,300.26ZM175.72,170.8l-71.15-68.33L157.88,87a10.56,10.56,0,0,0,1.32,1.54l71.14,68.34L177,172.35A10.13,10.13,0,0,0,175.72,170.8ZM309.72,45l71.15,68.34-53.31,15.44a9.9,9.9,0,0,0-1.31-1.54L255.1,58.86l53.31-15.44A10,10,0,0,0,309.72,45ZM234.46,66.77l71.15,68.33L252.3,150.55A10.13,10.13,0,0,0,251,149L179.84,80.67l53.3-15.44A10.56,10.56,0,0,0,234.46,66.77Zm150-45.37a35.33,35.33,0,0,1,9.83-1.4,35.88,35.88,0,0,1,34.33,25.73L443,95.32l-40.12,11.62a10.63,10.63,0,0,0-1.32-1.55L330.37,37.06ZM55.48,127.6a35.41,35.41,0,0,1,21.26-17.07l5.88-1.7a10,10,0,0,0,1.31,1.54l71.15,68.34L66.79,204.29,52.42,154.7A35.4,35.4,0,0,1,55.48,127.6ZM70,226.68h88l-42.48,73.58H70Zm303.66,73.58,42.48-73.58h45.49v73.58Z" transform="translate(-30.5 0.5)"></path><path class="cls-1" d="M334.92,405.11a10,10,0,0,0-5-8.66l-87.85-50.72a10,10,0,0,0-15,8.66V455.84a10,10,0,0,0,15,8.65l87.85-50.72A10,10,0,0,0,334.92,405.11Zm-87.85,33.41V371.71l57.85,33.4Z" transform="translate(-30.5 0.5)"></path><path class="cls-1" d="M265.77,492a10,10,0,1,0,10,10A10,10,0,0,0,265.77,492Z" transform="translate(-30.5 0.5)"></path></svg>