<svg xmlns="http://www.w3.org/2000/svg" id="Warstwa_1" data-name="Warstwa 1" viewBox="0 0 513 458.98"><defs><style>.cls-1{fill:#fff;stroke:#000;stroke-miterlimit:10;}</style></defs><title>www-white</title><path class="cls-1" d="M310,196a88,88,0,1,0,88,88A88.1,88.1,0,0,0,310,196Zm0,156a68,68,0,1,1,68-68A68.08,68.08,0,0,1,310,352Z" transform="translate(0.5 -27.5)"></path><path class="cls-1" d="M310,239a10,10,0,0,0,0,20,25,25,0,0,1,25,25,10,10,0,0,0,20,0A45,45,0,0,0,310,239Z" transform="translate(0.5 -27.5)"></path><path class="cls-1" d="M61.64,103.4a10,10,0,0,0-17.76,9.2l26.92,52a10,10,0,0,0,17.9-.27L105,130.4l17.7,34.2a10,10,0,0,0,8.88,5.4h.15a10,10,0,0,0,8.87-5.67l25-52a10,10,0,1,0-18-8.66l-16.3,33.93-17.7-34.2a10,10,0,0,0-17.9.27L79.35,137.6Z" transform="translate(0.5 -27.5)"></path><path class="cls-1" d="M126,48a10,10,0,1,0-7.07-2.93A10.08,10.08,0,0,0,126,48Z" transform="translate(0.5 -27.5)"></path><path class="cls-1" d="M512,200V68a40.05,40.05,0,0,0-40-40H168a10,10,0,0,0,0,20H472a20,20,0,0,1,20,20V200a20,20,0,0,1-20,20H424c-.29,0-.57,0-.85,0a130.71,130.71,0,0,0-70.29-58.77l14.82-30.87,17.7,34.2a10,10,0,0,0,8.88,5.4h.15a10,10,0,0,0,8.87-5.67l25-52a10,10,0,0,0-18-8.66L393.93,137.6l-17.7-34.2a10,10,0,0,0-17.9.27L342,137.6l-17.7-34.2a10,10,0,0,0-17.77,9.2l22.13,42.75a130.27,130.27,0,0,0-54.17,3.57l22.38-46.59a10,10,0,0,0-18-8.66L262.59,137.6l-17.71-34.2a10,10,0,0,0-17.89.27L210.7,137.6,193,103.4a10,10,0,0,0-17.76,9.2l26.92,52a10,10,0,0,0,17.89-.27l16.3-33.93L254,164.6a10.67,10.67,0,0,0,1.05,1.59A130.84,130.84,0,0,0,196.89,220H40a20,20,0,0,1-20-20V68A20,20,0,0,1,40,48H81a10,10,0,0,0,0-20H40A40.05,40.05,0,0,0,0,68V200a40,40,0,0,0,40,40H187.68A129.16,129.16,0,0,0,180,284c0,71.68,58.32,130,130,130a129.24,129.24,0,0,0,64.75-17.3l79.36,79.37a33.91,33.91,0,1,0,48-48l-31.19-31.18a10,10,0,0,0-14.14,14.14l31.19,31.19a13.91,13.91,0,1,1-19.67,19.67l-76.74-76.74A129.9,129.9,0,0,0,432.33,240H472A40,40,0,0,0,512,200ZM310,394A110,110,0,1,1,420,284,110.13,110.13,0,0,1,310,394Z" transform="translate(0.5 -27.5)"></path><path class="cls-1" d="M433,373.21a10,10,0,1,0,7.07-2.93A10.08,10.08,0,0,0,433,373.21Z" transform="translate(0.5 -27.5)"></path></svg>